<?xml version="1.0" encoding="utf-8"?>
<!-- Generator: Adobe Illustrator 19.0.0, SVG Export Plug-In . SVG Version: 6.00 Build 0)  -->
<svg version="1.1" id="Layer_1" xmlns="http://www.w3.org/2000/svg" xmlns:xlink="http://www.w3.org/1999/xlink" x="0px" y="0px"
	 viewBox="0 0 1000 1000" style="enable-background:new 0 0 1000 1000;" xml:space="preserve">
<g>
	<path d="M590.2,375.7c-10.7,5.7-20.6,12.9-28.3,22c-5.3,6.2-9.7,14-7.7,23.3c0.7,3.1,0.4,6.4,0.6,10.6c4.1-4.5,7.4-8.1,11.3-12.4
		c3.3,6.5-2.1,10.1-2.3,15.3c1.3-0.1,2.6-0.1,3.8-0.4c1.1-0.3,2.2-0.9,3.3-1.3c7.8-2.8,14.6-6.5,16.1-15.8c0.2-1,1.2-1.8,1.9-2.8
		c5.3,2.6,0.7,8.9,4.9,11.7c4.4-10.5,9.4-20.2,15.2-29.5c0.3-0.4,1.2-0.5,2.5-1c0,4.3,0,8.1,0,12.2c4.8,0.2,8.3-1.1,11.6-3.7
		c6.1-4.9,12.4-9.4,18.7-13.9c1.2-0.9,2.8-1.1,5-2c0,6-5.3,7.6-7.4,12.1c4.9,1.1,9.2-1,13.6-1.5c4.5-0.5,8.9-1.2,13.4-1.5
		c4.7-0.3,9.4-0.1,14.1,0.9c-4.1,0.5-8.1,1.1-12.2,1.6c-8.9,1-17.9,1.5-24.7,8.3c0.5,0.5,1.1,1.3,2.7,3.1c-2.9,0.6-4.8,1.5-6.7,1.3
		c-4.9-0.4-9.8-1-14.7-2c-5.1-1-9.2,1.3-13.4,3.3c-1,0.5-1.2,2.9-1.5,4.4c-0.5,2.2-0.7,4.4-1.1,6.5c-0.6,0-1.3,0-1.9-0.1
		c-0.2-3.2-0.4-6.4-0.7-11c-9.9,14.4-17.7,28.4-21.9,44.5c3.3-3.4,6.6-6.7,10.9-11.2c0.2,3,0.9,4.8,0.2,5.7
		c-4.3,5.8-8.4,11.9-13.5,17c-2.5,2.6-5,4.8-6,8.3c-3.7,12.7-7.6,25.3-11.3,37.9c-1.7,5.6-3.3,11.2-4.4,17.3
		c19.2-17.1,39.7-32.4,59.8-48.2c0.4,0.5,0.8,0.9,1.1,1.4c-4.6,3.9-8.9,8.2-13.8,11.7c-4.3,3.1-7.5,6.6-9.7,11.6
		c-5.1,11.4-11,22.4-16.6,33.6c-0.8,1.6-1.3,3.3-1.1,5.6c7.6-5.5,15.2-11,22.9-16.5c0.3,0.4,0.6,0.7,0.9,1.1
		c-0.7,0.7-1.4,1.6-2.2,2.2c-6.7,5.2-13.4,10.5-20.3,15.3c-4.1,2.8-6.8,6.4-8.8,10.7c-4.5,9.9-9.1,19.7-13.5,29.6
		c-2.6,5.8-5.5,11.5-5.2,18.1c0,1.2-1.1,2.5-1.7,3.7c-1.5,3.1-3,6.3-4,9.8c5.8-2.7,8.1-9,13.4-12.8c1.5,3.2-0.1,4.9-1.6,6.7
		c-3.6,4.4-7.1,8.9-10.8,13.1c-4.4,5-7.3,10.7-9.3,17.2c-7.3,23.1-11.2,46.7-12,70.9c-0.1,1.6,0,3.3,0,5.9c6.1-6.9,9-14.6,11.9-22.1
		c0.8-2,1.2-4.3,2.4-5.8c6.7-8.4,7.3-18.6,9.3-28.5c2.7-13.4,5.7-26.7,8.5-40c0.5,0.1,1,0.2,1.4,0.3c-3.2,17-6.4,34-9.5,51
		c0.5,0.2,1,0.4,1.5,0.7c1.8-2.3,3.7-4.7,5.5-7c4.7-6.2,9.5-12.3,14-18.7c1.6-2.3,2.7-5,3.5-7.6c5.3-16.6,10.3-33.3,15.6-49.9
		c2-6.3,4.6-12.4,6.1-18.8c4.1-17,12.6-32,20.2-47.4c9.8-20,23-37.8,35.1-56.4c1.5-2.3,2.2-5.1,3.3-7.6c4.7-10.5,9.3-21.1,14-31.6
		c0.1-0.3,0.8-0.2,1.9-0.5c1.6,5-2.6,9.2-2.2,14.8c3.7-4.4,7-8.2,10.7-12.5c1.1,1.9,1.8,3.2,2.5,4.5c6-4.6,11.8-8.9,17.6-13.4
		c3.1,5.3,3.1,6.1-0.9,7.9c-8,3.5-14,9.5-19.8,15.7c-2.4,2.5-4.1,5.7-8.5,5.4c-1.2-0.1-2.7,1.7-3.6,3c-8.8,11.9-17.8,23.8-26.2,36
		c-14.7,21.2-26.2,44.2-36.1,67.9c-2.6,6.3-4.3,13-6.5,19.4c-5.2,15.9-10.4,31.8-15.5,47.7c-1,3.2-1.6,6.6-2.4,10
		c0.6,0.2,1.2,0.4,1.8,0.7c3.2-6.3,6.8-12.4,9.5-18.9c7.8-18.5,14.1-37.5,23.3-55.4c10.7-20.9,22.8-40.7,37.8-58.8
		c1.7-2.1,2.5-4.9,4-7.2c1.4-2.1,2.9-4.3,4.8-5.9c2.5-2.1,5.5-3.6,8.2-5.6c1.7-1.2,3.6-2.5,4.4-4.3c2.3-4.8,6.1-7.5,10.5-10.1
		c2.4-1.4,4.4-2.1,7.2-1.9c2.4,0.1,5.1-0.5,7.3-1.5c3.4-1.6,6.5-1.4,9.3,0.7c3.1,2.4,1.5,5.4,0.8,8.5c-10.5-3.7-20.5-6.4-30.3,3.1
		c4.4,0.4,7.8,0.3,11.1,1.1c1.1,0.2,1.8,2.3,2.7,3.6c-1.1,0.7-2.1,1.3-3.2,2c-1.3-2.6-3.8-3.1-6-2.3c-4.6,1.5-9.7,2.8-13.4,5.6
		c-5,3.8-8.9,9-13.2,13.6c-1.2,1.3-1.9,2.9-3.4,5.1c10.5-6.8,20.1-13.1,29.8-19.2c1.9-1.2,4.2-1.9,6.3-2.9c0.1,3.3-1.6,5.8-3.9,7.9
		c-5.7,5.2-11.3,10.6-17.6,16.5c9-3.3,17.2-6.4,26.2-9.7c-0.6,7.2-5.7,9-9.4,11.7c-3.8,2.7-8,5-13.1,8.1c2.5,0.7,4.1,1.1,5.9,1.5
		c0.1,3.5-2.2,5.3-4.5,6.8c-4.7,3.1-9.6,5.9-14.4,9c-10,6.3-19.9,12.7-29.8,19.1c-1,0.7-1.7,1.9-2.2,3.2
		c21.7-11.1,44-19.9,68.2-23.2c-5.3,1.7-10.6,3.4-16,5c-18.6,5.8-36.3,13.3-52.7,23.9c-4.5,2.9-7.9,7.2-13.4,8.9
		c-2,0.6-3.1,5-4.2,7.9c-4.9,12.5-9.6,25.1-14.3,37.7c-1.3,3.5-2.7,6.9-4.5,11.6c8.4-3.2,14-8.1,20.2-12.1c1.1-0.7,1.2-2.9,1.7-4.5
		c2.8-8.8,8.3-15.8,15-21.9c0.3-0.2,0.9-0.1,1.7-0.1c2.1,3.8-1.7,6.4-2.3,10.2c5.9-3.7,11.4-7.2,16.4-10.3c3.1,2.2,5,4.5,7.4,4.9
		c2.2,0.4,4.8-1,7.1-2c17.7-7.7,35.4-15.6,53.1-23.3c1.2-0.5,2.5-0.9,4.2-0.2c-3.7,1.7-7.3,3.5-11.1,5.1
		c-29,12.6-57.6,26.2-85.2,41.6c-9.4,5.3-18.1,11.8-27.2,17.8c-6.4,4.2-7.1,11.5-8.9,17.9c-2,7.4-2.5,15.1-3.9,24.4
		c4.4-6.1,8-11.1,11.8-16.5c2.8,3.2,0.7,5.1-0.3,6.8c-4.6,7.5-8.4,15.2-10.2,25.7c2.7-2.5,4.4-4.2,6.2-5.7c3.7-3.1,6.2-7.8,11.7-8.6
		c1-0.1,1.9-1.9,2.6-3.1c1.1-2,1.9-4.2,4.1-5.8c-1.1,2.9-2.2,5.8-3.4,8.7c-12.4,29.2-21.7,59.3-26.9,90.6
		c-2.2,13.2-5.7,26.2-7.9,39.5c-1.4,8.6-1.2,17.4-2.3,26c-0.6,4.2-0.8,8.8-4.7,13c-0.6-1.6-1.4-2.7-1.2-3.4
		c5.4-17.6,3.3-36.1,6.8-53.9c0.2-0.9,0.2-1.9,0.4-2.8c6.5-24.4,12.7-48.8,19.6-73c2.8-9.9,7.2-19.3,10.9-29.2
		c-8.8,4-17.7,15.8-19.7,26.1c-1.4-0.3-2.9-0.6-4.6-0.9c-3.1,18.2-6.6,36-9.1,54c-2,13.7-2.9,27.6-4.2,41.5
		c-0.7,7.3-0.9,14.6-1.5,21.9c-0.1,1.7-1.1,3.3-2.1,6.3c-1.3-2.1-2.3-3-2.2-3.8c0.7-11,1.5-22,2.3-33.1c0.8-10.3,1.8-20.6,0.7-31
		c-0.9-8.6-0.1-17.4-0.1-26.2l-0.1,0.1c1.7-9,4-17.9,4.9-27c1.9-19.3,6.4-38.1,11.3-56.8c0.2-0.7,0.1-1.4,0.3-3
		c-1.4,1.4-2.5,2.1-3.2,3.1c-5.5,7.7-11,15.3-16.2,23.2c-1.4,2.1-2.5,4.7-2.7,7.1c-1.9,23-4.3,46.1-5.2,69.1
		c-0.9,22.9-0.4,45.8-0.4,68.7c0,4.2,0.7,8.5,1,12.7c0.2,2.7,0.2,2.7-3.8,5.7c-4.4-44.2-2.4-87.8,2.3-131.3
		c-4.3,11.9-7.4,24.1-7.5,36.7c-0.2,19.1,0.3,38.2,0.5,57.3c0.1,13.4,0.3,26.9,0.4,40.3c0,1.4-0.8,2.8-1.2,4.2c-0.5,0-1.1,0-1.6,0
		c-0.4-2.2-1.1-4.3-1.1-6.5c-0.2-27.8-0.5-55.6-0.4-83.5c0.1-19,4.3-37.4,9.8-55.6c0.4-1.4,0.9-2.7,1.2-4.1c0.2-0.7,0-1.4-0.8-2.5
		c-4.2,8.7-8.7,17.2-12.5,26c-6,13.5-5.6,28.1-6,42.4c-0.8,25.7-0.8,51.4-1.2,77.1c0,3.6,0,3.6-2.8,8c-4.3-10.9-3.7-21.7-5.1-32.1
		c-1.4-10.7-2.9-21.5-4.6-33.6c-3.9,9.5-5.1,18.1-4.3,27.2c1.1,12.4,1.6,25,2.3,37.4c0.1,1.6,0,3.2,0,4.8c-0.5,0-1.1,0.1-1.6,0.1
		c-0.5-6.7-0.9-13.3-1.4-20c-0.5-6.8-1-13.6-2.1-20.5c-3.1,6.9-4.9,14.3-5.9,21.7c-1,7.3-1.3,14.7-2.1,23.1
		c-3.7-3.7-7.6-5.9-8.6-10.3c-2.4-11-4.6-22.1-6.6-33.2c-1.7-9.3-3.1-18.6-4.6-27.9c-0.5-3.5-1.1-7-1-10.6
		c0.2-22.4-0.1-44.8,1.1-67.1c1.1-20.2,3.8-40.3,6-60.5c1.1-9.9,1.1-19.8-0.7-29.6c-0.2-1.3-0.9-2.5-1.9-5
		c-5,10.9-10.3,20.3-9.2,31.7c0.8,8.7,1.6,17.4,1.8,26.1c0.6,21.1-2.7,41.8-5.7,62.6c-2.1,14.7-3.2,29.5-5.7,44.1
		c-1.7,9.8,0.3,18.6,4.1,27.3c1.2,2.7,2,5.6,4.2,8.3c-0.4-10.5-0.8-21-1.2-31.4c0.6-0.1,1.1-0.1,1.7-0.2c0.7,24.8,4,49.2,10.2,73.1
		c0.1,0.2-0.6,0.6-1.4,1.3c-2.1-1.9-4.2-3.9-5.8-5.5c0.6-18.4-7.8-33.7-13.6-50.1c-0.3,0.9-0.7,1.8-0.7,2.8
		c-0.5,11.3-1.3,22.6-1.2,33.9c0,4.1-3.3,5.9-4.2,10.1c-0.9-2.4-1.6-4.1-2.1-5.8c-8.4-28.1-10.5-57-10-86.1c0.1-3.4-0.6-7-1.7-10.3
		c-8.4-24.5-16.9-49-25.4-73.5c-1.3-3.7-2.7-7.4-5.3-11c-0.3,3.4-0.8,6.7-1,10.1c-0.7,16.8,1.2,33.5,2.8,50.1
		c2.3,23.7,5.7,47.3,11.3,70.5c2.4,9.8,6,19.4,8.9,29.1c0.9,3.1,1.6,6.4,2.1,9.7c0.4,2.9,1.4,5.9-2.4,8c-1.5,0.8-1.6,3.9-2.5,6.2
		c-1.1-0.8-2.1-1.1-2.2-1.6c-1.1-7.9-2-15.8-3-23.7c-0.5-4.4-0.8-8.9-1.7-13.3c-1.7-8.3-3.7-16.5-5.6-24.8c-0.2-1-0.9-1.9-2.6-2.7
		c0.3,6,0.2,12.1,1,18c1.8,14.3,4.1,28.5,6.1,42.7c0.2,1.5-0.3,3.1-0.4,4.7c-1.7-0.2-3.9,0.1-5.1-0.8c-4.6-3.3-8.5-7.2-10.1-13.3
		c2.3,2,4.6,4.1,6.9,6.1c-4.4-10.8-11.9-19.7-17.9-29.4c-6.1-9.8-12.4-19.5-19.2-28.8c-6.8-9.4-14.4-18.2-21.8-27.5
		c3.2-1.7,4.8,0.4,6.2,2.1c6,7.6,12.1,15.1,17.8,22.9c4.6,6.3,8.5,13,13,19.4c1.6,2.3,4.1,4.1,6.1,6.1c0.4-0.3,0.8-0.6,1.2-0.9
		c-3.1-6.2-6.3-12.4-9.3-18.7c-3-6.4-5.3-13.3-9-19.2c-3.9-6.1-5.6-13.3-9.6-19.2c-1.2-1.8-3.3-3-4.9-4.5c-1-0.9-2.3-1.7-2.9-2.9
		c-4.4-9.6-8.6-19.4-12.9-29.1c-0.2-0.5,0.4-1.2,0.8-2.4c5.3,2.5,5.5,7.8,7.6,11.9c2.1,4.3,3.3,9.1,7,13.7c1.7-5.4-3.4-9.3-0.2-14.6
		c5,5.5,3.8,12.9,7.9,18.6c0.3-1.1,0.6-1.9,0.9-2.7c0.4-1,0.9-2,2.6-2.9c0.3,1.7,1.2,3.4,1,5c-1.3,10.3,1.7,19.6,6.3,28.6
		c8.7,17.2,17.4,34.5,26.1,51.8c1.1,2.1,2.5,3.9,4.7,5.7c-0.5-7.1-1-14.2-1.6-21.3c-1-11.5-2.2-23-3.2-34.5
		c-0.8-9.5-4.9-17.8-9.3-25.8c-5.8-10.5-11.8-21-20.2-29.8c-5-5.2-9.7-10.9-14.4-16.4c-1.7-2-3.2-4.1-4.6-6.2
		c-1.6-2.3-2.6-5.4-6.4-3.2c-2.6-3-8.4-2.3-9.2-7c-1.4-8.4-7.6-12.5-13.7-16.9c-1.6-1.1-2.6-3-3.8-4.6c-1.8-2.5-3.4-5.1-5.1-7.6
		c-3-4.4-6.1-8.7-7.3-14c0.4-0.3,0.9-0.6,1.3-0.9c3.7,5.2,7.4,10.3,11.1,15.5c0.3-0.1,0.6-0.3,1-0.4c-0.3-2.1-0.6-4.2-0.9-6.4
		c3.3,1.1,3.3,1.1,9,13.1c1.2-0.5,2.4-1,4.5-1.8c1.7,4.5,3.4,8.8,5,13c0.2,0,0.5-0.1,0.7-0.1c0-2.5,0-5,0-8.3
		c5.4,3,3.2,8.4,5.6,11.7c1.2-2.6,2.8-2.9,4.4-0.4c2.7,4.1,5.7,8.1,7.5,12.6c3.4,8.4,8.7,15.7,14.5,22.3c8.8,10,15.7,21.2,22.6,32.5
		c0.5,0.8,1,1.5,2.7,1.8c-1.7-7.9-3.1-15.9-5.1-23.6c-1.6-6.1-4.2-12-6.1-18.1c-1.8-5.6-3.6-11.2-5.1-16.9
		c-6.1-22.5-14.9-43.6-29.6-62.1c-7.5-9.4-14.3-19.3-21-29.3c-2.6-3.8-3.8-8.5-6.1-12.6c-1.2-2.1-2.8-4.2-4.7-5.7
		c-4.9-3.7-10-7-15-10.5c-1.6-1.2-3.1-2.6-5.2-4.2c5.8-4.8,10.9,0.7,16.4-0.7c-1-5.5-0.5-11.4-6.2-15.3c-1.7-1.1-2.9-3.2-3.8-5
		c-4.2-8.4-8.3-16.9-12.3-25.5c-1-2.2-2.4-4.7,0.5-7.4c8.8,7.8,10.1,19.4,15.3,30.2c3.4-13-1.1-24.8,0.4-36.6
		c4.5,3.9,2.8,9.4,4.1,14.1c1.4,4.8,1.6,10,3.5,15c0.8-3.7,1.6-7.4,2.4-11.2c3.8,1.2,2.9,3.7,3.1,5.6c0.4,4.6-0.4,9.4,3.6,13.2
		c0.9,0.9,0.8,3.1,0.7,4.7c-0.3,5.2-0.9,10.3-1.3,15.5c-0.2,3.2-1.4,6.6,2,9.4c1.4-1.1,2.8-2.1,4.4-3.3c4.6,4.8,2.2,10.6,3.2,16.6
		c3.1-3.1,5.9-5.9,8.7-8.7c0.5,0.2,1,0.3,1.6,0.5c0.1,1.6,0.7,3.5,0.2,4.9c-3.1,7-6.5,13.9-10,21.2c2.9,4,6,8.2,9,12.4
		c7.9,11.2,16.4,22,23.5,33.6c8.9,14.6,13.4,31.1,18,47.5c1.6,5.9,3.6,11.7,5.7,17.5c5.2,14.3,7.1,29.3,10.1,44.1
		c0.7,3.4,1.5,6.9,3.5,10.2c-0.2-2-0.3-4-0.5-6.1c-2.1-19.4-4.4-38.9-6.2-58.3c-0.8-8.6-3.5-16.6-6.4-24.5
		c-2.4-6.4-4.8-12.8-7.1-19.2c-0.4-1.2-0.2-2.6-0.4-5.5c2.6,2.3,4.2,3.6,6.2,5.3c-0.7-4.9-1.4-9.3-1.9-13.8
		c-0.3-2.6-1.8-5.4,1.4-7.7c0.8-0.6-0.2-3.9-0.9-5.8c-2.6-7.1-5.9-14-7.9-21.2c-4-14.5-7.2-29.3-10.9-43.9
		c-3.8-14.8-8-29.6-11.8-44.4c-6.2-24.5-11.5-49.1-11.6-74.6c0-3.5-0.1-7.1-0.7-10.6c-0.4-2.2-1.8-4.1-3-6.9
		c6-8.6,2.6-19.2,4.1-29.1c1.8-12.1,3.1-24.3,7.1-36c1-3,1.6-6.3,7.1-7.7c-6,13.7-9.5,27-10.2,41.6c5.2-5.4,8.3-12,15.9-14.1
		c-3.2,4-6.3,8-9.5,12c0.2,0.3,0.4,0.5,0.6,0.8c3.1-1.9,6.1-3.8,9.3-5.8c2.3,3.8,0.4,5.6-1.2,7.7c-4.9,6.8-9.6,13.9-13.9,21.2
		c5.7-2.7,7.7-9,12.3-12.8c2.9,1.5,2.2,3.2,0.8,5.1c-3.6,5-7.1,10-10.5,15.1c-0.8,1.1-1.2,2.5-2.4,5c8.5-3.7,10.3-13,17.4-16.4
		c2.3,2.9,0.3,4.3-1,6c-4,5.3-8,10.5-11.8,15.9c-6.3,8.8-8.3,18.6-6.9,29.5c2.2,16.9,5.5,33.5,9.6,50c0.1,0.6,0.6,1.1,1.5,3
		c1.1-10.2,2.1-19,3.1-27.9c-1.7-0.5-3.4-0.5-4.1-1.3c-0.8-0.9-1.1-2.7-0.8-3.9c1.3-4.3,2.8-8.5,4.6-12.6c2.7-6.5,5.5-13,8.5-19.4
		c3-6.4,6.3-12.7,9.6-18.9c2-3.7,5.2-6.3,9.3-7.1c1.7-0.3,3.7,1,5.6,1.6c-0.8,1.5-1.2,3.4-2.4,4.5c-9.4,8.2-16.2,18.4-21.7,29.4
		c-0.7,1.4-1,3-0.8,5.2c1-1,2-1.9,3-3c5.5-6.4,11-12.9,16.5-19.3c0.8-0.9,1.6-1.9,2.6-2.3c0.9-0.4,2.1,0,3.2,0
		c0,1.3,0.3,2.7-0.2,3.8c-0.4,0.9-1.9,1.4-2.7,2.2c-9.1,8.6-18,17.4-22.5,29.6c8.3-5.7,12.9-16.3,23.4-20c1.6,4.6-1.2,5.2-2.9,6.6
		c-9,7.3-16.6,15.9-21.6,26.6c7.7-4.4,10.9-13.5,18.8-18c2.8,2.7,1.3,4.4-0.6,6C386.6,487,381.8,497,377,507
		c-0.2,0.4-0.2,0.9-0.4,2.5c3.1-1.6,4.1-4.2,5.7-6.2c1.8-2.2,3.2-4.8,5.2-6.7c1.9-1.9,4.4-3.2,6.3-4.6c3.2,2.3,2,4.2,0.9,6
		c-4.1,6.6-8.5,13.1-12.3,19.8c-3.5,6.1-6.6,12.5-9.5,18.8c-0.6,1.3-0.1,3.2,0.3,4.7c4.6,16.8,9.6,33.5,13.7,50.5
		c3.6,15,9.7,29.1,15.3,43.3c0.2,0.6,0.7,1.1,1.8,2.7c-0.6-8.6-1.1-16.1-1.7-24.5c3.4,2.8,3.9,3.6,5.4,8c2-9.1,0.2-17.1,2-25.2
		c2.4,3.2,4.7,6.5,7.2,9.9c3.1-9.9,3.5-13.5,1.4-19c-1.4,3.1-2.6,5.7-3.8,8.4c-0.6-0.1-1.2-0.2-1.8-0.4c-0.3-7.2-0.6-14.4-0.9-22.8
		c2.1-2.9,4.2,2.7,7.6,2c-2.1-3.3-4.1-6.1-5.8-9c-1.7-3-3.2-6.2-4.9-9.7c6.4-2.8,8.6,4.6,14.1,4.3c-3.6-5.4-6.9-10.4-10.5-15.9
		c4.6-0.4,4.6-0.4,12.6,4.1c-3.5-6.2-6.2-11.1-9.1-16.2c3.5-0.5,3.5-0.5,10.2,8.7c2.5-4.2,0.4-7.9,0.1-11.6c-0.4-3.6-1.1-7.3-1.6-11
		c3.6-0.5,4.2,1.5,4.7,3.6c3.8,16.5,7.3,33.2,11.6,49.6c3.8,14.5,4.9,29.3,5.3,44.2c0.1,4.9-0.5,9.9-0.8,14.8
		c-0.1,2.6-0.4,5.2-0.4,7.8c0.4,15.1,1.1,30.2,1.2,45.3c0.2,23.8,0.2,47.6-0.1,71.4c-0.1,7.9,3,14.7,5.1,21.9
		c1.3,4.5,3.3,8.8,5.4,14.5c0.7-2.7,1.4-4.3,1.5-5.9c1-22.2,5.4-44,8.3-66c2.2-16.3,4.6-32.8,2.2-49.3c-0.3-2,0.4-4.1-2.6-5.2
		c-1-0.3-1.9-3.4-1.5-4.7c3.5-10.7,0.9-21.5,1.4-32.3c0.7-14.8,2.7-29.6,4-44.4c0.2-2.3,0.4-4.8-0.2-7
		c-5.8-19.1-11.7-38.2-18.4-57.3c1.4,30.5,2.7,61,4.1,91.5c-4.1-21.3-4.4-42.9-5.6-64.4c-0.9-15.3-2-30.6-1.9-45.9
		c0.2-18.4,1.8-36.7,2.7-55.1c0.7-14.5,4.7-28.3,7.3-42.5c0.7-3.6,0.8-6.4-3.2-7.4c0-0.9-0.2-1.6,0-1.8c5.6-6.4,6.4-14.4,8.2-22.2
		c1.9-8.5,4.6-16.8,6.9-25.2c1-3.4,1.5-6.6,0.6-10.3c-1-4-0.2-8.4-0.7-12.7c-3.4,5.9-4.7,12.4-5.2,19.6c-3.4-4.5-3.3-8-0.1-17.6
		c1.9-5.5,3.8-10.9,7.2-16.3c0.8,1.8,1.6,3.5,2.8,6.1c2.1-6.6,3.9-12.7,5.8-18.8c0.6,0,1.2,0,1.8-0.1c1,2.4,1.9,4.8,3.1,7.9
		c4.7-8.3,4.3-18.7,12.7-26c1,3.5,1.8,6.2,2.7,9.1c3.5-1.4,2.2-3.9,1.6-5.9c-2.9-10.1-1-17.9,6.5-25.3c4.1,3.7,4.4,5.7,0,8.4
		c-4.2,2.6-5.5,6.1-5.3,11.5c3.1-2.7,5.6-5,8.6-7.8c2.2,7-5.9,7.2-5.5,12.4c0.9,0.5,2.9,1,3.2,2c0.5,1.6,0.3,3.8-0.4,5.4
		c-2.2,4.9-4.8,9.7-7.3,14.5c-1,1.9-2.1,3.6-3.8,6.5c4.9-2.1,8.8-3.8,13.4-5.8c0.3,3.8-0.1,6.3-3.2,7c-8.4,1.8-13.7,7.9-19.6,13.2
		c-3.3,3-6.5,6.1-9.8,9.2c-1,1-2.3,1.9-2.7,3.2c-2.8,8.7-5.4,17.4-8,26.2c0.5,0.3,1,0.6,1.4,0.9c2.3-2.4,4.8-4.7,6.9-7.3
		c9-10.7,18.1-21.2,29.3-29.6c1.5-1.1,3-2.2,4.6-3.3c0.5-0.4,1.3-0.4,2.3-0.2c-13.7,12-26.8,24.4-38,40.8
		c7.2-3.5,10.5-10.1,16.6-12.7c2.3,3.6,0.1,4.8-1.6,6.5c-3,3.1-7,5.6-5.7,11.2c0.3,1.4-2.1,3.4-3.4,5.1c-3.5,4.6-8.4,8.2-9.5,14.9
		c3.7-3.5,7.5-7,11.2-10.4c2.8,3,1,4.6-0.4,6c-8.7,8.2-15.3,17.9-21.1,28.2c-0.7,1.2-1.6,2.4-1.8,3.7c-2,11.8-4.5,23.6-5.7,35.6
		c-1.4,13.8-2.1,27.8-2,41.7c0.1,8.4,1.4,17,3.6,25.1c4.2,16.2,9.4,32.2,14.2,48.2c0.4,1.5,1.2,2.9,2.4,5.7
		c4.2-11,7.9-20.8,11.5-30.6c0.8-1.6,1.6-3.3,2.4-4.9c1.4-2.4,2.9-4.7,4.3-7.1l-0.1,0.1c0.5-0.8,0.9-1.6,1.5-2.4
		c7-8.6,8.6-18.7,9.6-29.6c1.9-18.4-1.5-36.7,0-55c0.8-9.4,1.1-18.8,1.8-28.2c0.1-1.5,0.9-3,1.6-4.9c4.8,3.6,1.1,8.4,3.3,12
		c7.7-18.1,10.5-38.2,21.6-55.5c3.5,2.5,3.3,5,2.7,7.6c-1.5,6-2.9,11.9-4.2,17.9c-0.4,1.5-0.5,3.1,0.2,5.2c2.2-3.2,4.3-6.5,6.7-9.5
		c2.4-3,4.5-6.7,8.9-7.9c2.5,2.9,1.9,6-1,7c-5.4,1.8-7.7,6.1-10.1,10.3c-8.4,14.2-15.8,28.9-18.4,45.7c1.3-2.5,2.6-4.9,4-7.4
		c1.6-2.6,3.2-5.2,4.9-7.8c2.6-3.9,5.1-7.9,8-11.7c1.5-1.9,3.5-3.4,5.3-5c2.4,2.4,1.7,3.9,0.1,5.4c-13,12.7-19.8,29.1-26.8,45.4
		c-3.8,8.8-4,19.5-1.3,31.6c-6.2,2.3-3.7,7.4-3.1,12.1c5.7-7.4,11.3-14.9,17.1-22.2c1.7-2.1,3.9-3.8,5.9-5.7
		c-0.3,0.9-0.3,1.9-0.8,2.6c-4.9,6.7-10.1,13.1-14.6,19.9c-3.7,5.6-8.2,11.4-9.6,17.8c-1.9,8.8-1.1,18.2-1.4,27.4
		c-0.2,5.2-0.1,10.3-0.1,15.5c0,6.2,0,12.4,0,18.7c2.5-1.9,3.8-4.4,5.4-6.5c1.6-2.2,3.6-4.1,5.5-6.1c-3.1,5.5-6.3,11-9.1,16.6
		c-1.2,2.4-2.2,5.3-2.1,7.9c0.5,15.5,1.3,31.1,2,46.6c0.8,20.2,1.9,40.5,2.1,60.8c0.2,19.6-0.7,39.1-1,58.7
		c-0.1,5.2,0.4,10.3,3.4,14.6c-3.5,7.3-3.2,8.4,2.9,11.5c0-2.6,0.1-4.9,0-7.2c-0.9-12.9-2.1-25.8-2.6-38.8
		c-0.5-15.5-0.6-31.1-0.4-46.6c0.4-23.6,1.2-47.1,1.8-70.7c0.1-3.3-0.4-6.7-0.7-10.8c0.6-2.5,1.7-5.8,2.1-9.2
		c1-9.8,1.7-19.7,2.4-29.5c0.1-1.3-0.6-2.7-0.9-4c0.8-2.7,1.8-5.3,2.3-8.1c4.5-25,9-50.1,13.4-75.1c0.3-2-0.1-4.1-0.1-6.1
		c1.1-3.6,1.5-7.1,1-10.9c-0.6-4.6-0.8-9.4,2.4-13.9c1.4,0.2,2.9,0.4,4.5,0.6c2.7-7.6,5.2-15.2,8-22.6c3.2-8.6,6-17.5,10.2-25.5
		c6.2-11.6,7.8-24,8.8-36.7c0.4-5.2,1-10.3,1.7-15.5c0.2-1.7,0.9-3.4,1.5-5.2c4.5,2.1,2.2,5.8,3.7,9.3c2.8-5.7,5.5-10.9,8.1-16.2
		c0.5,0.2,0.9,0.4,1.4,0.6c-4.8,13.4-9.5,26.9-14.3,40.3c0.4,0.2,0.7,0.4,1.1,0.6c6.8-9.2,13.6-18.5,20.4-27.7
		c0.5-0.7,1.2-1.8,1-2.5c-1.4-5.7,2.1-9.9,4.5-14.4c4-7.7,8.1-15.4,12.4-23c1.3-2.3,1.9-5.3,5.4-6.7c1.9,7.2-4.3,11.8-4.9,19.5
		c5.4-5.3,10.9-8.6,14.3-14.4c3.9-6.7,7.9-13.4,12-20c1.5-2.4,3.7-4.4,5.9-7c3.2,4.3,0.5,7.6,0.1,11.8c5.8-4,11.2-7.7,16.6-11.4
		c-1.8,2.8-4.7,5.4-1.2,9.4c5.6-2.2,11.3-4.5,17-6.9c0.2,0.4,0.4,0.8,0.5,1.1c-1.9,1.2-3.8,2.5-5.8,3.8c3.1,1.4,6.9-3.4,10.1,2
		c-0.8,0.4-1.4,0.9-2,1c-9,1.6-16.7,6.2-24.4,10.8c-9.5,5.6-18.6,12.1-29.8,13.9c-1.1,0.2-2.3,0.8-2.9,1.7
		c-6.5,7.9-12.9,15.9-18.9,24.5c12.3-5.6,23.3-13.8,37.5-15.9c-0.2,4.8-3,5.3-6.1,5.7c-11,1.6-19.5,8.4-28.2,14.7
		c4.8-0.6,9.5-1.2,14.1-1.8c1.4,3.6-0.7,4.5-2.6,5.5c-4,2-8.1,3.9-12,6c-2.2,1.2-4.3,2.7-7.7,4.8c7.1,0,11.7-5.2,17.5-3.4
		c0.9,2.7-0.4,3.7-2.4,4.5c-3.5,1.5-6.9,3-10.2,4.9c-2.2,1.2-4.1,3-6.1,4.6L590.2,375.7z M527.5,673c3.3-10,1.8-19.3-3.6-28.2
		c0.2,4.4,1,8.7,1.7,13.1c0.8,5.1,1.4,10.2,2,15.3c-1.3,1.6-2.6,3.2-4.2,5.3c0.7,1.7,1.5,3.7,2.3,5.7c0.5-0.1,1-0.1,1.5-0.2
		C527.3,680.2,527.4,676.6,527.5,673z M622.5,561.1c10.2-4.2,39.3-22.9,43.3-28c-1.5,0.4-2.6,0.6-3.7,0.9
		c-10.7,3.3-19.8,9.7-29.3,15.3c-5,2.9-8.3,6.7-10.2,11.9c-0.7,1.8-1.5,3.5-2.2,5.3c0.5,0.1,0.9,0.2,1.4,0.3
		C622,564.9,622.2,563,622.5,561.1z M581.3,431c-6.2,3.1-12.2,6.1-18.2,9.2c-5.4,2.8-9.4,6.4-7.8,13.2c-1.8,1.2-3.4,2.2-4.9,3.4
		c-3.5,2.8-8.9,5-10,8.6c-1.7,6-4.5,10.9-8.1,15.7c-0.4,0.5-0.4,1.3-0.5,2c-4.1,21-8.2,42-12.5,63.5c11.2-5.8,12.4-5.8,13.8-0.1
		c-8.5-1-10.9,5.8-14.7,11c10.2-6.1,12.3-6.5,16.8-1.9c-2.6,0.6-4.8,0.9-6.9,1.6c-2.4,0.7-4.8,1.6-5.7,4.6c9.9-1.6,9.9-1.6,10.3,3.6
		c-8.1,0.1-14.4,3.3-16.6,11.3c-1.9,6.9-1.7,14.2-0.6,22.2c8.7-7.2,16.5-13.9,24.6-20.2c3.6-2.8,5.6-6.1,6.6-10.4
		c1.7-7.8,3.3-15.7,5.5-23.3c2.9-10.2,6.5-20.2,9.5-30.3c1.7-5.9,3.8-11.7,2.4-18.4c-1.4-6.8-0.6-14.1-1.6-21.1
		c-0.6-4.1,0.7-6.1,4.3-7c0-5.2-0.3-9.9,0.1-14.6c0.3-4.6-1.1-9.6,1.7-14.8c6,7.5,2.6,17.1,7.6,24.6c3.7-2.7,4.6-6.3,4.8-9.6
		C581.6,446.5,581.3,439.2,581.3,431z M499.9,760.3c2.7-56,1.1-111-3.1-165.9c-0.6,0.1-1.3,0.1-1.4,0.4c-3.9,6.7-7.9,13.4-11.6,20.2
		c-0.7,1.2-0.7,3.2-0.2,4.7c4.8,15.6,2.9,31.2,1.2,47c-1.4,12.6-3.2,25.3-3.1,38c0.1,20.5,1.9,41,2.2,61.5
		c0.1,8.8,4.4,15.9,6.9,23.7c0.2,0.8,1.1,1.3,2.5,2.9c0.4-5.7,1.1-10.5-1.8-14.5c-7.7-10.8-4.7-22.6-3.6-34.2c0-0.2,0.7-0.3,1.3-0.6
		c1.1,2.4,2.1,4.8,3.9,8.7c0.5-4.9,0.8-7.9,1.2-12.2C497.7,746.9,492.3,754.8,499.9,760.3z M441,746.3c0.4-0.1,0.8-0.2,1.2-0.3
		c0-16.9,0-33.9-0.1-50.8c0-1.2-1.1-2.5-1.7-3.7c-0.6,1.1-0.2,1.6-0.1,2.1c0.2,1.4,0.2,2.8,0.3,4.2c-1.3-0.5-3.2-0.6-3.9-1.5
		c-7-8.7-6.1-19.7-7.9-29.9c-0.4-2.2-0.3-4.9-1-7.3c-0.6-2.1-1.8-4.3,1.2-6.9c3.4,7.5,6.1,14.9,11.5,20.9c0.4-0.8,0.6-1,0.6-1.2
		c0.3-17.7,0.7-35.3,0.9-53c0-1.5-0.7-3.3-1.6-4.4c-4.8-5.8-9.8-11.4-14.8-17c-0.8-0.9-1.8-1.6-3.5-3.1c0,4.6,0,8.1,0,11.8
		c2-0.9,3.8-1.7,5.9-2.6c0.3,1.2,0.7,1.9,0.6,2.4c-1.1,3.6-2.3,7.2-3.4,10.8c-0.2,0.5,0.2,1.2,0.4,1.8c1.9-0.9,3.6-1.7,5.3-2.4
		c-0.1,2.5-1,4.1-2,5.5c-5.1,7.3-10.3,14.6-15.4,21.9c-3.8,5.4-4.2,11.3-2.1,17.5c9.5,27.6,18.9,55.2,28.4,82.8
		C440,744.8,440.5,745.5,441,746.3z M522.2,658.6c-0.7-5.7-1.5-10.1-1.6-14.6c-0.1-4.5-2-9,0.1-14.1c6.5,4.2,5.5,11.9,10.5,16.7
		c0.3-11.6,0.6-23.3,0.9-35.7c2,1.1,3.3,1.8,4.9,2.7c2.5-11.1,5-21.7,7.6-33.1c-1.7,0.5-2.5,0.5-3,0.9c-8.4,7.5-16.9,15-25.2,22.8
		c-1.5,1.4-2.5,4.1-2.7,6.2c-1,12-2.2,24-2.4,36c-0.6,24.8-1.1,49.5-0.8,74.3c0.2,15.4,1.9,30.8,2.9,46.1c0.6,0,1.2,0.1,1.9,0.1
		c1.3-6.1,2.9-12.2,3.8-18.4c1.9-14,3.4-28.1,5.2-42.1c0.7-5.9,1.4-11.6-0.9-17.4c-4.7-11.9-6.6-24.5-8.7-37.1c-0.2-1.2,0-2.5,0-4.4
		C520.1,649.6,518.6,655,522.2,658.6z M481.1,611.1c0.5-0.1,1-0.1,1.5-0.2c4.3-7,8.6-14,12.7-21c0.7-1.2,1.1-2.6,1.1-4
		c0.5-15.3,0.9-30.5,1.2-45.8c0.1-5,0-10.1,0-16.4c-1.6,1.7-2.3,2.3-2.8,3c-6.7,12.1-12.8,24.5-16.9,37.9
		c-3.1,10.1-4.5,19.9-0.9,30.2C478.9,600.1,479.8,605.7,481.1,611.1z M596.2,508.5c-0.4-0.3-0.7-0.6-1.1-0.9
		c-9.7,8.7-19.3,17.6-29.2,26.2c-6.8,5.8-10.4,13.1-12.3,21.6c-1,4.4-2,8.8-3,13.2c0.5,0.3,0.9,0.6,1.4,0.8
		c6.9-5.1,14-10.2,20.8-15.5c1.4-1.1,2.1-3.1,2.9-4.7c4.3-8.6,8.5-17.3,12.8-26C591,518.3,593.6,513.4,596.2,508.5z M568.3,562.7
		c-0.3-0.4-0.7-0.7-1-1.1c-5.5,4.3-11.2,8.4-16.6,12.9c-1.4,1.2-2.1,3.5-2.7,5.5c-0.7,2.2-0.8,4.6-1.3,6.9
		c-2.7,12.9-5.5,25.7-8.1,38.6c-0.6,3.1-0.7,6.4-1.2,10.5C548,610.9,558.2,586.8,568.3,562.7z M445.8,771.9
		c-3.4,17,0.6,58.3,6.6,71.2c0.7-10.5,1.1-20.8,2.3-31.1c1-8.3,1.4-16.3-2.7-24.1C449.5,783.3,448.1,778.1,445.8,771.9z M583,646.7
		c-4,2.9-4.2,2.9-4.8,5.7c-4.8,22.3-11.5,44.2-14,67.1c-1,8.9-2.8,17.7-3.9,26.6c-0.8,6.2-0.9,12.6-1.2,18.9
		c2.3-6.2,3.4-12.4,4.5-18.7c1.9-11.1,3.7-22.3,5.5-33.4c1.8-10.9,3.2-21.9,5.4-32.7c1.9-9,4.7-17.7,7.1-26.6
		C582,651.5,582.4,649.5,583,646.7z M485.8,789.3c-1.7,8.8,3.5,51.1,6.8,56.6c0-11.5-0.5-23.5,0.2-35.4
		C493.3,802.2,490.7,795.5,485.8,789.3z M521.4,760.8c-3.4,7.3-7.5,14.9-6.9,23.1c1,13.5,3.2,27,4.9,40.5c0.1,0,0.3-0.1,0.4-0.1
		C520.3,803.1,520.8,782,521.4,760.8z M638.1,534.3c-2,3.5-3.4,6-5.3,9.3c16.5-6.8,46.4-25,51.5-31.2c-14.8,5.8-28.7,12.3-40.4,22.9
		C642,537,640.3,538.6,638.1,534.3z M470.9,634.3c2.3-4.8,4.7-9.6,6.9-14.4c0.6-1.2,1.2-2.8,1-4c-1.6-7.8-3.5-15.5-5.3-23.2
		C471.3,606.6,468.8,620.2,470.9,634.3z M496,807.6c0.3,6.9,0.6,13.7,0.9,20.5c2.6-5.2,4-10.4,5.3-15.7c2-8.5,2.5-16.6-5.5-23.5
		c0.6,4.3-1.7,8.4,2.3,11.7c1.2,1,1.6,3,2.3,4.5C499.8,805.8,498.2,806.6,496,807.6z M418,563.2c2.7,8.4,14.7,22.2,22.1,25.2
		c-0.8-3.5-1.5-6.6-2-8.8C429.4,576,425.6,567.6,418,563.2z M677.7,501.8c-11.7,7.5-23.7,14.4-32.2,25.9
		C657.9,521.1,668.5,512.3,677.7,501.8z M516.5,405.9c2-1.1,3.6-1.4,3.9-2.1c2.8-8.9,5.4-17.8,6.2-27.2
		C522.2,385.6,518.5,394.8,516.5,405.9z M432.5,592.5c-0.4,0.4-0.7,0.7-1.1,1.1c2.7,4.7,5.4,9.5,8.2,14.2c0.4-0.2,0.8-0.3,1.2-0.5
		c0-4.3,0-8.6,0-12.6C437.7,593.9,435.1,593.2,432.5,592.5z M581.5,366.7c6.4-3.9,12.1-7.3,18.9-11.3
		C591.3,355.6,584.4,356.9,581.5,366.7z M503.9,289.6c-6.5,6.9-10.3,15.4-14.6,23.6C495.8,306.4,500.2,298.2,503.9,289.6z
		 M413.9,633.2c2.2-1.3,4.1-2.6,3.9-5.7c-0.2-2.1,0.6-4.4,1.3-6.5c0.7-2.1,1.8-4.2,3.1-7C413.4,618.3,415.4,626.4,413.9,633.2z
		 M584.2,374.7c-7.4,1.8-14.8,3.5-17.1,12.7C573.2,382.9,578.7,378.8,584.2,374.7z M496.1,763.5c-0.6,8.1-0.3,8.6,5.5,10.9
		C502.9,769.6,499.7,767.1,496.1,763.5z M583.3,446.3c6.7-5.6,2.6-11.5,3.8-16.9c-0.6-0.1-1.2-0.1-1.8-0.2
		C584.7,434.6,584,440,583.3,446.3z M435.3,572.6c-0.1-5.6-5-12.8-10.2-16C428.6,562.1,432,567.4,435.3,572.6z M481.1,762
		c-0.3,0-0.7-0.1-1-0.1c0,10.1,0,20.2,0,31.6c0.7-1.7,1-2.2,1-2.6C481.1,781.3,481.1,771.6,481.1,762z M378.3,516.7
		c-8,8.6-8.5,9.5-7.4,13C373.6,525,375.9,520.8,378.3,516.7z M540.7,449.6c4.2-2.2,6.6-5.3,4.1-11
		C543.3,442.8,542,446.2,540.7,449.6z M355.7,413.6c4.2-4.7,4.2-4.7,5.3-9.2C357.3,406.7,355.1,409,355.7,413.6z M331.6,580.3
		c0.6-0.2,1.3-0.3,1.9-0.5c-0.8-2.6,1.8-6.4-4.4-8.2C330.2,575,330.9,577.6,331.6,580.3z M471.2,371.7c-6.4,2.9-6.4,2.9-5.8,7
		C467.5,376.2,469.3,374,471.2,371.7z M463.5,390.4c-0.5,0-0.9-0.1-1.4-0.1c-0.2,2.9-0.5,5.8-0.8,9.6
		C466.1,396.5,462.8,393.3,463.5,390.4z M491.4,298.3c0.6,0.1,1.2,0.1,1.9,0.2c0.6-3.2,1.2-6.4,1.8-9.6c-0.5-0.1-1-0.2-1.4-0.3
		C492.8,291.8,492.1,295,491.4,298.3z M430.1,543.5c-1.5,4.7-1.5,4.7,2.4,8.1C431.7,548.6,430.9,546.1,430.1,543.5z M425.4,585
		c-0.5,0.1-0.9,0.2-1.4,0.2c0,4.5,0,4.5,4.3,7C427.2,589.6,426.3,587.3,425.4,585z M549.9,425.9c-0.1,0-0.2,0-0.3,0c0,2.5,0,5,0,7.6
		c0.1,0,0.2,0,0.3,0C549.9,430.9,549.9,428.4,549.9,425.9z M501.1,784.8c0.4-0.3,0.8-0.6,1.2-0.9c-1.4-1.9-2.8-3.7-4.2-5.6
		c-0.4,0.3-0.8,0.6-1.1,0.8C498.4,781,499.8,782.9,501.1,784.8z M491.1,756.8c-0.9,3.4-0.9,3.4,1.9,6.6
		C492.1,760.2,491.6,758.5,491.1,756.8z M507.8,789.2c-0.5,0-1.1-0.1-1.6-0.1c-0.1,2-0.2,4.1-0.3,6.1c0.4,0,0.8,0.1,1.1,0.1
		C507.3,793.2,507.5,791.2,507.8,789.2z M371.9,506.2c0.4,0.2,0.8,0.4,1.2,0.6c0.8-1.9,1.7-3.8,2.5-5.7c-0.5-0.2-0.9-0.4-1.4-0.6
		C373.5,502.4,372.7,504.3,371.9,506.2z M638.5,306c0.3,0.4,0.5,0.8,0.8,1.2c1.4-1.1,2.8-2.2,4.2-3.3c-0.3-0.3-0.6-0.7-0.8-1
		C641.3,303.9,639.9,304.9,638.5,306z M414.3,839.1c-0.3-2.2-0.4-3.6-0.8-4.9c-0.1-0.5-0.9-0.9-1.9-1.9
		C410.6,835.5,411.8,837.1,414.3,839.1z M592.1,344c0.4,0.2,0.7,0.4,1.1,0.6c0.9-1.5,1.9-3,2.8-4.5c-0.4-0.2-0.8-0.5-1.2-0.7
		C593.9,341,593,342.5,592.1,344z M479.6,313.8c-0.3-0.1-0.7-0.3-1-0.4c-0.5,2.1-1,4.3-1.5,6.4c0.3,0.1,0.7,0.2,1,0.2
		C478.6,317.9,479.1,315.8,479.6,313.8z M574.5,699.1c0.4,0.2,0.8,0.4,1.2,0.6c0.4-1.3,0.9-2.6,1.3-3.8c-0.4-0.1-0.7-0.3-1.1-0.4
		C575.4,696.7,574.9,697.9,574.5,699.1z M535.1,649.7c0.3,0,0.6,0,0.9,0.1c0.1-1.3,0.2-2.6,0.3-3.8c-0.3,0-0.7,0-1-0.1
		C535.2,647.1,535.2,648.4,535.1,649.7z M629,614.7c-0.3-0.4-0.6-0.7-0.9-1.1c-1,0.8-1.9,1.5-2.9,2.3c0.2,0.3,0.4,0.5,0.6,0.8
		C626.9,616,628,615.3,629,614.7z M543.9,453.1c0.4,0.3,0.7,0.6,1.1,1c0.7-1.1,1.5-2.2,2.2-3.4c-0.3-0.2-0.6-0.4-0.9-0.6
		C545.5,451.1,544.7,452.1,543.9,453.1z M321.7,544.5c-0.1,0-0.2,0-0.3,0c-0.1,1-0.3,2.1-0.4,3.1c0.3,0,0.5,0,0.8,0.1
		C321.7,546.6,321.7,545.5,321.7,544.5z"/>
	<path d="M663.7,712.9c-1,2.6-1.8,5.3-3.1,7.7c-8.8,17-16.9,34.3-22.4,52.7c-0.5,1.7-0.7,3.4-1.2,5.7c5.4-1.5,6.2-5.9,8.1-9.2
		c6-9.9,11.1-20.4,17.9-29.6c7.8-10.6,17.1-20.1,25.7-30.1c0.9-1,2.1-1.8,4-2c-1,1.3-1.9,2.7-3.1,3.9c-13.1,14-25.2,28.8-35,45.2
		c-1.5,2.4-2.8,4.9-4,7.5c-2.1,4.3-2,4.3,0.4,9.7c-10.7,6.5-12.5,18.1-16.5,29.4c4.5-0.8,7-3.1,9-6c1.6-2.3,3.1-4.7,4.7-7
		c17.6-25,38.4-46.6,65.2-61.8c9.2-5.2,19-9.5,28.5-14.1c0.5-0.3,1.3,0,2.4,0.8c-2.8,1.4-5.5,3-8.3,4.3c-26,12.1-49,28.2-67.8,50
		c-6.6,7.6-12.7,15.7-18.8,23.2c1.5,2.9,2.5,4.9,3.3,6.5c-0.6,0.9-0.6,1.2-0.8,1.3c-7.8,2.6-12.9,8.2-16.6,15.3
		c-3,5.5-6.2,10.9-8.9,16.7c11.5-7.3,20.5-18.1,33.6-22.8c0.7-0.3,1.7,0.2,3.6,0.6c-5,11.5-14.5,18.8-22.2,28.9c4-0.7,6.6-2.5,9.2-4
		c9.4-5.5,19-10.4,29.5-13.5c5-1.5,10-2.8,15.9-1c0.1,7.7-7,9.8-10.9,14.7c20.7-5.9,41.2-12,62.9-15.5c0.2,3.5-1,4.6-3.5,4.9
		c-27.5,3-53.2,12.4-78.6,22.7c-2,0.8-4.2,1-6.3,1.5c-0.3-0.6-0.6-1.2-0.9-1.7c1.3-1,2.5-2.2,3.9-3.1c7.4-4.6,14.9-9,22.3-13.6
		c2.3-1.5,4.3-3.5,6.1-6.8c-1.6,0-3.3-0.2-4.9,0c-9.9,1.7-18.9,5.8-27.5,10.8c-8.2,4.7-16.1,9.8-24.2,14.6c-2.1,1.2-4.5,1.8-6.7,2.7
		c-0.4-0.5-0.7-1-1.1-1.4c1-1.3,1.8-2.8,2.9-4c8.4-9.2,16.9-18.4,25.4-27.6c0.8-0.8,1.4-1.8,1.7-3.2c-4.6,1.1-8.1,4-11.6,6.7
		c-3.5,2.8-6.8,5.8-10.2,8.8c-3.6,3.1-7.2,6.1-10.6,9.4c-3.1,3-6,6.2-9.6,10c-1.7-6.7,4.8-9.3,3.8-14.8c-0.8-4.3,1.3-9.1,1.5-14
		c-5.6,5.9-13.4,9.5-16.5,17.6c-0.2,0.4-0.2,1.1-0.6,1.3c-3.3,1.8-6.7,3.5-10.6,4.9c3.5-7.1,10.8-12.9,6.7-22.3
		c-4.3,2.2-6.6,6.5-9.3,10.3c-2.8,3.8-5.6,7.7-7.9,11.7c-2.4,4.2-4.2,8.7-6.6,13.7c-2.9-3.7-1.5-6.7-0.1-9.1
		c4.3-7.3,8.8-14.5,13.5-21.6c2.3-3.5,5-7,8-9.9c3.4-3.3,5.1-7.2,5.7-11.8c0.9-6.9,2.1-13.7,2.2-20.9c-1.5,2.9-3.1,5.7-4.6,8.6
		c-7.5,13.9-15.1,27.8-22.3,41.8c-2.4,4.8-3.9,10.1-5.2,15.3c-0.9,3.7-2.4,6.8-5,11.3c-0.4-2.4-0.7-3.2-0.6-4c0.4-5.1,1-10,0.3-15.2
		c-0.6-4.2,0.6-9,2.1-13.2c7.3-19.9,15-39.7,22.7-59.5c4.6-12.1,9.1-24.2,14.2-36.1c2.3-5.4,5.6-10.3,8.6-15.4
		c4-6.7,8.4-13.1,12.4-19.8c2.1-3.6,3.8-7.4,5.7-11.2c0.3-0.6,0.5-1.4,1-1.8c8.8-7.8,11.8-19.1,17.6-28.8c1.6-2.6,3.3-5.1,4.9-7.7
		c0.3,0.2,0.5,0.4,0.8,0.7c-1.9,4.1-3.8,8.3-5.7,12.4c0.3,0.3,0.6,0.6,0.9,0.8c2-1,4-2.1,5.9-3.1c5.4-2.8,11.1-4.1,17.1-3.3
		c4.3,0.5,4.9,1.5,4.1,6c-6.9-3.4-12.9-1.1-19.2,2.2c-4.8,2.5-10.3,3.5-14.9,9.1c2.6-0.7,4.2-1.3,5.8-1.6c3.2-0.7,6.4-1.6,9.6-1.8
		c2.5-0.2,4.3,1.3,4,5c-8.4-2.3-15.2,0.9-21,5.6c-3,2.4-4.5,6.8-7.2,11.1c3.9-0.2,6.3-0.3,10-0.5c-1.1,2.1-1.7,3.4-2.4,4.6
		c-6.6,0.7-6.7,0.7-9.9,5.4c3.8-2.1,6.8-3.8,9.8-5.5c2.4,0.1,5.3-1,6.3,3.4c-6.9,2.1-14,3.9-20.2,9.7c4.4,0.3,7.4-1.4,10.6-1.7
		c3.2-0.4,6.8-1.5,9.8,3.5c-8.5,1.2-16.4,0.7-23.1,6.2c1.4,1.6,2.7,3.2,4.7,5.4c-1.8,0.5-2.8,1-3.8,0.9c-3.8-0.3-5.4,1.7-4.8,5
		c0.4,2.4-0.3,3.6-1.6,5.5c-1.9,2.8-3.1,6.3-4,9.6c-1.7,6-3,12.1-4.9,19.8c7.1-8.7,13.1-16,19.3-23.6c3.1,3,1.5,4.8,0,6.6
		c-4.4,5.2-8.8,10.5-13.3,15.6c-5.1,5.8-8.6,12.2-9.7,20c-1.1,7.9-2.7,15.7-4.1,23.5c0.5,0.3,0.9,0.6,1.4,0.9c4-3.7,8-7.5,12-11.2
		c2.6-2.4,5-5.2,7.9-7c4.1-2.6,6.3-6.2,7.5-10.7c5.9-22,16.3-42.1,26.7-62.2c0.7-1.4,2.1-2.4,3.2-3.5L663.7,712.9z M616.7,737.6
		c-8.5,4.7-12.4,8.8-15.4,16.7c-7.7,20-15.3,40-22.7,60c-2.2,6-3.8,12.3-5.7,18.4c1.6-0.3,2.2-1,2.7-1.8
		c8.9-15.8,17.8-31.5,26.7-47.3c2.3-4.1,5.3-8,6.5-12.4C611.8,760.5,614,749.4,616.7,737.6z M628.4,795.7c-0.6-0.4-1.3-0.9-1.9-1.3
		c-5.4,5.1-10.4,10.8-16.3,15.3c-7.5,5.7-6.9,13-6.4,22.3c4.9-4.9,8.4-9.5,12.9-12.6C625.4,813.4,625.6,804,628.4,795.7z
		 M636.1,790.2c-0.6-0.3-1.1-0.6-1.7-0.8c-2.9,5.5-4.4,11.4-5.7,17.4c0.4,0.2,0.9,0.3,1.3,0.5C632,801.6,634.1,795.9,636.1,790.2z
		 M620.2,715c4.1-0.9,6.7-4.9,7.7-11.2C625.3,707.5,622.7,711.2,620.2,715z M611,735.2c3.2-2.4,7.7-3.2,9.5-7.9
		C614.8,729.2,614.8,729.2,611,735.2z M634,812.6c-0.3-0.3-0.7-0.7-1-1c-0.9,1.3-1.7,2.6-2.6,3.8c0.3,0.2,0.6,0.4,0.8,0.6
		C632.2,814.9,633.1,813.8,634,812.6z"/>
	<path d="M337.9,809.9c-1.5-3.8-2.9-7.7-4.5-11.5c-7.1-17.7-13.9-35.6-17.6-54.4c-2.9-14.6-3.5-29.4,0.8-44c0,2.1,0.2,4.2,0,6.2
		c-2.7,21.4,1.5,41.8,8.6,61.8c4.3,12,8.7,24,13.5,35.7c1.5,3.6,3.9,7,6.8,9.7c8.6,8,17.7,15.6,26.6,23.3c1.3,1.1,2.4,2.4,3.2,4
		c-4.7-0.2-7.1-4.1-11.4-5.5c3.3,3.9,6.5,7.8,9.6,11.4c-1.3,3.8-3.8,3.2-6.1,2.6c-5.5-1.4-10.9-2.9-16.4-4.5
		c-13.9-3.9-27.9-7.1-42.5-5.9c-4.4,0.4-8.8,1.3-13.3,1.9c-3.1,0.4-3.1,0.4-6.9-2.7c18.5-2.9,35.9-3.7,53.4,1.3
		c0.2-0.5,0.4-1,0.7-1.6c-1.6-1.9-3-4-4.7-5.8c-8.5-9.4-17.3-18.6-25.7-28.3c-9.5-11-20-20.6-33.6-26.5c-3.2-1.4-6.2-3.3-9.1-5.4
		c9,1.2,16.7,5.6,23.8,10.6c6.5,4.6,12.3,10.3,17.9,16c9,9.3,17.7,19,26.4,28.6c3.3,3.7,6.3,7.6,9.5,11.3c1.1,1.3,2.7,2.1,5.2,2.3
		c-0.5-1.2-0.8-2.4-1.4-3.4c-9.1-13.8-18.6-27.3-27.4-41.3c-19.4-30.9-32.9-64.2-38-100.5c-2-14.5-2.4-29.1-1-43.7
		c0.2-1.8,0.6-3.6,1.6-5.5c-4.8,61.5,16,114.9,50.3,164.1C336.9,810.2,337.4,810,337.9,809.9z M349.8,824.4
		c1.5,8,6.6,13.5,11.7,19.1c0.7,0.7,2.5,0.5,5.4,0.9C360.5,836.9,355.1,830.7,349.8,824.4z"/>
	<path d="M514.7,382.4c13.8-28.8,22.7-59.3,32.2-90.9c3.7,4,2.2,7.1,1.6,10.1c-0.6,2.9-1.2,5.8-2,9.9c7.6-7.7,12.7-16.3,21.7-20.5
		c3.4,4.2-0.5,6.6-0.3,10c4.4-2.4,8.5-4.8,14.1-7.9c-0.3,3.7-0.5,5.8-0.7,7.9c1.2-0.1,2.5-0.3,5.4-0.6c-1.8,2.3-2.6,3.8-3.9,4.8
		c-6.4,4.8-12.7,9.7-19.4,14.1c-2.6,1.7-6.2,1.8-9.1,3.2c-2.7,1.4-5,3.6-8.1,4.8c2.9-10.4,12.2-16.7,16.7-27.7
		c-6.6,5.3-11.1,10.6-14.4,16.7c-4.2,7.8-10.2,14.9-10.6,24.4c0,0.6-0.4,1.6-0.8,1.9c-5.2,2.8-5.6,8.4-7.8,13
		c-4.3,9.1-8.5,18.3-12.7,27.5C516.1,382.9,515.4,382.7,514.7,382.4z"/>
	<path d="M576.3,265.2c-1.1,5.3-2.6,9.1-6.3,12.2c-2.1,1.7-2.7,5.4-3.9,8.2c-0.7,1.6-1.4,3.3-2.6,4.8c-1.1-5.6-3.8-10.9-1-16.9
		c2.5-5.3,3.9-11.1,5.9-16.6c0.6-1.6,1.8-3,3.1-5c3.4,4.2,0.5,7.9,0.7,11.8c3.4-2.6,6.1-5.1,9.3-7.1c1.3-0.8,3.3-0.4,5-0.5
		c-0.3,1.7-0.1,3.8-1,5.1C583.6,264.1,581.2,266.9,576.3,265.2z"/>
	<path d="M556.1,746.7c-0.9,9.1-2.3,18.2-2.6,27.3c-0.7,24.3-1,48.5-1.4,72.8c0,2,0.6,4.4-2.7,5.5c-0.5-1.5-1.4-3-1.4-4.4
		c0.9-36.8,0.1-73.7,8-110.1c0,3,0,6,0,9C556,746.8,556.1,746.7,556.1,746.7z"/>
	<path d="M349.2,784.5c2.6-2.4,3.9-0.8,5.2,0.6c3.7,4.3,7.7,8.4,10.8,13c10.4,15.5,22.7,29.5,35,43.4c0.5,0.5,1,1,1.4,1.6
		c1.2,2,5,3.7,1.9,6.2c-1.1,0.9-5.1-0.4-6.7-1.9c-4.1-3.8-9.7-7-8.9-14.1c0.1-0.7-0.9-1.6-1.5-2.3c-9.5-12.3-19.1-24.5-28.7-36.7
		C355.2,791,352.2,788,349.2,784.5z"/>
	<path d="M324.8,832.5c-5.2,1.2-6.8-1.6-9-3.1c-17.3-11.8-34.8-23.4-54.5-30.9c-4.8-1.8-9.8-3.7-14.8-4.5c-4.8-0.8-9.8-0.2-14.7-0.7
		c12.8-1.3,25.6-1,37.1,5.1c16,8.4,31.5,17.9,47.1,27.1C318.8,827,321.1,829.4,324.8,832.5z"/>
	<path d="M485.3,535.8c-0.8,1.6-1.6,3.3-2.4,4.9c-1.8,1-3.9,1.5-4.5-1.1c-1.6-7.3-2.8-14.7-4-22.1c-0.1-0.7,0.7-1.6,1.4-3
		c1.6,1.2,3,2.2,4.3,3.2c0.6-2,1.2-4,1.8-6.1c0.5,0,1,0,1.5,0c2,5.8,4.1,11.5,6.1,17.3l0.1-0.1C483.8,528.4,485.5,532.7,485.3,535.8
		z"/>
	<path d="M303.1,829c-14.2-1.5-27-4.1-39.7-4c-12.7,0.2-25.4,3.2-37,4.8C240,820.1,286.7,818.6,303.1,829z"/>
	<path d="M590.1,375.8c8.6-3,17.5-4.4,28.3-4.8c-1.9,2.3-2.5,3.8-3.5,4.1c-5.9,1.8-11.7,3.6-17.7,4.8c-2.2,0.4-4.8-0.9-7.2-1.6
		c-0.2,0,0.1-1.7,0.2-2.5C590.2,375.7,590.1,375.8,590.1,375.8z"/>
	<path d="M589.4,401.9c-11,5.8-21.5,11.2-31.9,16.6c-0.3-0.3-0.6-0.7-0.9-1c0.8-1.2,1.5-2.6,2.5-3.5
		C564.6,409.8,582.7,402.5,589.4,401.9z"/>
	<path d="M691.1,673.7c-6.2,8.5-12.3,16.9-18.5,25.4c-0.3-0.2-0.5-0.5-0.8-0.7c4.9-9.4,10.7-18.1,18.4-25.6
		C690.5,673.1,690.8,673.4,691.1,673.7z"/>
	<path d="M383.3,835c4.4,6.8,0.2,13.4,3.9,18.8C382,850.1,380.7,843.5,383.3,835z"/>
	<path d="M556.5,283.5c4.6,4.3-1.6,8,0.7,13.3C552.1,291.5,552.2,287.6,556.5,283.5z"/>
	<path d="M582.5,248.7c-2.3-7-0.9-8.9,5.8-8C586.4,243.4,584.6,245.9,582.5,248.7z"/>
	<path d="M690.2,672.9c2.6-2.9,5.1-5.8,7.7-8.7c0.4,0.4,0.8,0.7,1.3,1.1c-2.7,2.8-5.4,5.6-8.1,8.4
		C690.8,673.4,690.5,673.1,690.2,672.9z"/>
	<path d="M656.2,650.2c1.9-3.4,3.9-6.9,5.8-10.3c0.5,0.3,1,0.6,1.5,0.9c-2.2,3.4-4.4,6.7-6.5,10.1
		C656.7,650.7,656.5,650.4,656.2,650.2z"/>
	<path d="M687.1,607.2c1.9-1.9,3.8-3.7,5.7-5.6c0.3,0.2,0.5,0.5,0.8,0.7c-1.8,2-3.7,4-5.5,5.9C687.7,607.9,687.4,607.6,687.1,607.2z
		"/>
	<path d="M653.8,285.1c2.4-1.9,4.7-3.7,7.1-5.6l-0.1-0.1C658.5,281.3,656.2,283.2,653.8,285.1z"/>
	<path d="M672.6,699.1c-1.4,2.4-2.8,4.7-4.2,7.1c-0.3-0.3-0.6-0.5-0.9-0.8c1.4-2.3,2.9-4.7,4.3-7
		C672.1,698.6,672.4,698.9,672.6,699.1z"/>
	<path d="M663.8,713c1.3-2.5,2.5-5,3.8-7.5c0.3,0.3,0.6,0.5,0.9,0.8c-1.6,2.2-3.2,4.4-4.7,6.7C663.7,712.9,663.8,713,663.8,713z"/>
	<path d="M670.2,629c0.6-1,1.2-2,1.8-3.1c0.3,0.2,0.6,0.3,0.9,0.5c-0.6,1-1.1,2.1-1.7,3.1C670.8,629.4,670.5,629.2,670.2,629z"/>
	<path d="M695.6,704.6c1-0.8,2-1.6,2.9-2.4c0.2,0.2,0.5,0.4,0.7,0.6c-0.9,0.9-1.7,1.9-2.6,2.8C696.3,705.2,696,704.9,695.6,704.6z"
		/>
	<path d="M660.9,279.5c1.1-1.3,2.2-2.6,3.3-4c0.3,2.8-1.4,3.5-3.4,3.8C660.8,279.4,660.9,279.5,660.9,279.5z"/>
	<path d="M554.7,497.5c-8.8-2.5-13.8,2.7-18.7,9.2c-0.5-11.2,10.9-22.2,20.5-20.8c0.7,0.1,1.4,1,3.2,2.3c-3.8,1-6.4,1.7-9.5,2.6
		C551.3,493.4,556.2,492.8,554.7,497.5z"/>
	<path d="M538.4,522.9c-4.7,4.2-8.9,8-13.3,12c-1.8-2-0.4-3.7,0.8-5.3c1.2-1.7,2.4-3.6,3.9-4.9C532.1,522.5,534.8,520.4,538.4,522.9
		z"/>
	<path d="M561.5,478.8c-5.1,1.9-9.9,3.7-15.5,5.9C549.9,477.2,556.3,474.9,561.5,478.8z"/>
	<path d="M494.5,733.4c0.3-1,0.6-1.9,0.9-2.9c0.3,0.1,0.5,0.1,0.8,0.2c-0.1,1-0.3,2-0.4,3.1C495.4,733.6,494.9,733.5,494.5,733.4z"
		/>
</g>
</svg>
