<?xml version="1.0" encoding="UTF-8"?>
<svg width="522px" height="626px" viewBox="0 0 522 626" version="1.1" xmlns="http://www.w3.org/2000/svg" xmlns:xlink="http://www.w3.org/1999/xlink">
    <title>2 elements</title>
    <g id="Page-1" stroke="none" stroke-width="1" fill="none" fill-rule="evenodd">
        <g id="2-elements" transform="translate(0, -0)" fill="#000000" fill-rule="nonzero">
            <path d="M363.8,135.208254 C353.1,140.908254 343.2,148.108254 335.5,157.208254 C330.2,163.408254 325.8,171.208254 327.8,180.508254 C328.5,183.608254 328.2,186.908254 328.4,191.108254 C332.5,186.608254 335.8,183.008254 339.7,178.708254 C343,185.208254 337.6,188.808254 337.4,194.008254 C338.7,193.908254 340,193.908254 341.2,193.608254 C342.3,193.308254 343.4,192.708254 344.5,192.308254 C352.3,189.508254 359.1,185.808254 360.6,176.508254 C360.8,175.508254 361.8,174.708254 362.5,173.708254 C367.8,176.308254 363.2,182.608254 367.4,185.408254 C371.8,174.908254 376.8,165.208254 382.6,155.908254 C382.9,155.508254 383.8,155.408254 385.1,154.908254 C385.1,159.208254 385.1,163.008254 385.1,167.108254 C389.9,167.308254 393.4,166.008254 396.7,163.408254 C402.8,158.508254 409.1,154.008254 415.4,149.508254 C416.6,148.608254 418.2,148.408254 420.4,147.508254 C420.4,153.508254 415.1,155.108254 413,159.608254 C417.9,160.708254 422.2,158.608254 426.6,158.108254 C431.1,157.608254 435.5,156.908254 440,156.608254 C444.7,156.308254 449.4,156.508254 454.1,157.508254 C450,158.008254 446,158.608254 441.9,159.108254 C433,160.108254 424,160.608254 417.2,167.408254 C417.7,167.908254 418.3,168.708254 419.9,170.508254 C417,171.108254 415.1,172.008254 413.2,171.808254 C408.3,171.408254 403.4,170.808254 398.5,169.808254 C393.4,168.808254 389.3,171.108254 385.1,173.108254 C384.1,173.608254 383.9,176.008254 383.6,177.508254 C383.1,179.708254 382.9,181.908254 382.5,184.008254 C381.9,184.008254 381.2,184.008254 380.6,183.908254 C380.4,180.708254 380.2,177.508254 379.9,172.908254 C370,187.308254 362.2,201.308254 358,217.408254 C361.3,214.008254 364.6,210.708254 368.9,206.208254 C369.1,209.208254 369.8,211.008254 369.1,211.908254 C364.8,217.708254 360.7,223.808254 355.6,228.908254 C353.1,231.508254 350.6,233.708254 349.6,237.208254 C345.9,249.908254 342,262.508254 338.3,275.108254 C336.6,280.708254 335,286.308254 333.9,292.408254 C353.1,275.308254 373.6,260.008254 393.7,244.208254 C394.1,244.708254 394.5,245.108254 394.8,245.608254 C390.2,249.508254 385.9,253.808254 381,257.308254 C376.7,260.408254 373.5,263.908254 371.3,268.908254 C366.2,280.308254 360.3,291.308254 354.7,302.508254 C353.9,304.108254 353.4,305.808254 353.6,308.108254 C361.2,302.608254 368.8,297.108254 376.5,291.608254 C376.8,292.008254 377.1,292.308254 377.4,292.708254 C376.7,293.408254 376,294.308254 375.2,294.908254 C368.5,300.108254 361.8,305.408254 354.9,310.208254 C350.8,313.008254 348.1,316.608254 346.1,320.908254 C341.6,330.808254 337,340.608254 332.6,350.508254 C330,356.308254 327.1,362.008254 327.4,368.608254 C327.4,369.808254 326.3,371.108254 325.7,372.308254 C324.2,375.408254 322.7,378.608254 321.7,382.108254 C327.5,379.408254 329.8,373.108254 335.1,369.308254 C336.6,372.508254 335,374.208254 333.5,376.008254 C329.9,380.408254 326.4,384.908254 322.7,389.108254 C318.3,394.108254 315.4,399.808254 313.4,406.308254 C306.1,429.408254 302.2,453.008254 301.4,477.208254 C301.3,478.808254 301.4,480.508254 301.4,483.108254 C307.5,476.208254 310.4,468.508254 313.3,461.008254 C314.1,459.008254 314.5,456.708254 315.7,455.208254 C322.4,446.808254 323,436.608254 325,426.708254 C327.7,413.308254 330.7,400.008254 333.5,386.708254 C334,386.808254 334.5,386.908254 334.9,387.008254 C331.7,404.008254 328.5,421.008254 325.4,438.008254 C325.9,438.208254 326.4,438.408254 326.9,438.708254 C328.7,436.408254 330.6,434.008254 332.4,431.708254 C337.1,425.508254 341.9,419.408254 346.4,413.008254 C348,410.708254 349.1,408.008254 349.9,405.408254 C355.2,388.808254 360.2,372.108254 365.5,355.508254 C367.5,349.208254 370.1,343.108254 371.6,336.708254 C375.7,319.708254 384.2,304.708254 391.8,289.308254 C401.6,269.308254 414.8,251.508254 426.9,232.908254 C428.4,230.608254 429.1,227.808254 430.2,225.308254 C434.9,214.808254 439.5,204.208254 444.2,193.708254 C444.3,193.408254 445,193.508254 446.1,193.208254 C447.7,198.208254 443.5,202.408254 443.9,208.008254 C447.6,203.608254 450.9,199.808254 454.6,195.508254 C455.7,197.408254 456.4,198.708254 457.1,200.008254 C463.1,195.408254 468.9,191.108254 474.7,186.608254 C477.8,191.908254 477.8,192.708254 473.8,194.508254 C465.8,198.008254 459.8,204.008254 454,210.208254 C451.6,212.708254 449.9,215.908254 445.5,215.608254 C444.3,215.508254 442.8,217.308254 441.9,218.608254 C433.1,230.508254 424.1,242.408254 415.7,254.608254 C401,275.808254 389.5,298.808254 379.6,322.508254 C377,328.808254 375.3,335.508254 373.1,341.908254 C367.9,357.808254 362.7,373.708254 357.6,389.608254 C356.6,392.808254 356,396.208254 355.2,399.608254 C355.8,399.808254 356.4,400.008254 357,400.308254 C360.2,394.008254 363.8,387.908254 366.5,381.408254 C374.3,362.908254 380.6,343.908254 389.8,326.008254 C400.5,305.108254 412.6,285.308254 427.6,267.208254 C429.3,265.108254 430.1,262.308254 431.6,260.008254 C433,257.908254 434.5,255.708254 436.4,254.108254 C438.9,252.008254 441.9,250.508254 444.6,248.508254 C446.3,247.308254 448.2,246.008254 449,244.208254 C451.3,239.408254 455.1,236.708254 459.5,234.108254 C461.9,232.708254 463.9,232.008254 466.7,232.208254 C469.1,232.308254 471.8,231.708254 474,230.708254 C477.4,229.108254 480.5,229.308254 483.3,231.408254 C486.4,233.808254 484.8,236.808254 484.1,239.908254 C473.6,236.208254 463.6,233.508254 453.8,243.008254 C458.2,243.408254 461.6,243.308254 464.9,244.108254 C466,244.308254 466.7,246.408254 467.6,247.708254 C466.5,248.408254 465.5,249.008254 464.4,249.708254 C463.1,247.108254 460.6,246.608254 458.4,247.408254 C453.8,248.908254 448.7,250.208254 445,253.008254 C440,256.808254 436.1,262.008254 431.8,266.608254 C430.6,267.908254 429.9,269.508254 428.4,271.708254 C438.9,264.908254 448.5,258.608254 458.2,252.508254 C460.1,251.308254 462.4,250.608254 464.5,249.608254 C464.6,252.908254 462.9,255.408254 460.6,257.508254 C454.9,262.708254 449.3,268.108254 443,274.008254 C452,270.708254 460.2,267.608254 469.2,264.308254 C468.6,271.508254 463.5,273.308254 459.8,276.008254 C456,278.708254 451.8,281.008254 446.7,284.108254 C449.2,284.808254 450.8,285.208254 452.6,285.608254 C452.7,289.108254 450.4,290.908254 448.1,292.408254 C443.4,295.508254 438.5,298.308254 433.7,301.408254 C423.7,307.708254 413.8,314.108254 403.9,320.508254 C402.9,321.208254 402.2,322.408254 401.7,323.708254 C423.4,312.608254 445.7,303.808254 469.9,300.508254 C464.6,302.208254 459.3,303.908254 453.9,305.508254 C435.3,311.308254 417.6,318.808254 401.2,329.408254 C396.7,332.308254 393.3,336.608254 387.8,338.308254 C385.8,338.908254 384.7,343.308254 383.6,346.208254 C378.7,358.708254 374,371.308254 369.3,383.908254 C368,387.408254 366.6,390.808254 364.8,395.508254 C373.2,392.308254 378.8,387.408254 385,383.408254 C386.1,382.708254 386.2,380.508254 386.7,378.908254 C389.5,370.108254 395,363.108254 401.7,357.008254 C402,356.808254 402.6,356.908254 403.4,356.908254 C405.5,360.708254 401.7,363.308254 401.1,367.108254 C407,363.408254 412.5,359.908254 417.5,356.808254 C420.6,359.008254 422.5,361.308254 424.9,361.708254 C427.1,362.108254 429.7,360.708254 432,359.708254 C449.7,352.008254 467.4,344.108254 485.1,336.408254 C486.3,335.908254 487.6,335.508254 489.3,336.208254 C485.6,337.908254 482,339.708254 478.2,341.308254 C449.2,353.908254 420.6,367.508254 393,382.908254 C383.6,388.208254 374.9,394.708254 365.8,400.708254 C359.4,404.908254 358.7,412.208254 356.9,418.608254 C354.9,426.008254 354.4,433.708254 353,443.008254 C357.4,436.908254 361,431.908254 364.8,426.508254 C367.6,429.708254 365.5,431.608254 364.5,433.308254 C359.9,440.808254 356.1,448.508254 354.3,459.008254 C357,456.508254 358.7,454.808254 360.5,453.308254 C364.2,450.208254 366.7,445.508254 372.2,444.708254 C373.2,444.608254 374.1,442.808254 374.8,441.608254 C375.9,439.608254 376.7,437.408254 378.9,435.808254 C377.8,438.708254 376.7,441.608254 375.5,444.508254 C363.1,473.708254 353.8,503.808254 348.6,535.108254 C346.4,548.308254 342.9,561.308254 340.7,574.608254 C339.3,583.208254 339.5,592.008254 338.4,600.608254 C337.8,604.808254 337.6,609.408254 333.7,613.608254 C333.1,612.008254 332.3,610.908254 332.5,610.208254 C337.9,592.608254 335.8,574.108254 339.3,556.308254 C339.5,555.408254 339.5,554.408254 339.7,553.508254 C346.2,529.108254 352.4,504.708254 359.3,480.508254 C362.1,470.608254 366.5,461.208254 370.2,451.308254 C361.4,455.308254 352.5,467.108254 350.5,477.408254 C349.1,477.108254 347.6,476.808254 345.9,476.508254 C342.8,494.708254 339.3,512.508254 336.8,530.508254 C334.8,544.208254 333.9,558.108254 332.6,572.008254 C331.9,579.308254 331.7,586.608254 331.1,593.908254 C331,595.608254 330,597.208254 329,600.208254 C327.7,598.108254 326.7,597.208254 326.8,596.408254 C327.5,585.408254 328.3,574.408254 329.1,563.308254 C329.9,553.008254 330.9,542.708254 329.8,532.308254 C328.9,523.708254 329.7,514.908254 329.7,506.108254 L329.6,506.208254 C331.3,497.208254 333.6,488.308254 334.5,479.208254 C336.4,459.908254 340.9,441.108254 345.8,422.408254 C346,421.708254 345.9,421.008254 346.1,419.408254 C344.7,420.808254 343.6,421.508254 342.9,422.508254 C337.4,430.208254 331.9,437.808254 326.7,445.708254 C325.3,447.808254 324.2,450.408254 324,452.808254 C322.1,475.808254 319.7,498.908254 318.8,521.908254 C317.9,544.808254 318.4,567.708254 318.4,590.608254 C318.4,594.808254 319.1,599.108254 319.4,603.308254 C319.6,606.008254 319.6,606.008254 315.6,609.008254 C311.2,564.808254 313.2,521.208254 317.9,477.708254 C313.6,489.608254 310.5,501.808254 310.4,514.408254 C310.2,533.508254 310.7,552.608254 310.9,571.708254 C311,585.108254 311.2,598.608254 311.3,612.008254 C311.3,613.408254 310.5,614.808254 310.1,616.208254 C309.6,616.208254 309,616.208254 308.5,616.208254 C308.1,614.008254 307.4,611.908254 307.4,609.708254 C307.2,581.908254 306.9,554.108254 307,526.208254 C307.1,507.208254 311.3,488.808254 316.8,470.608254 C317.2,469.208254 317.7,467.908254 318,466.508254 C318.2,465.808254 318,465.108254 317.2,464.008254 C313,472.708254 308.5,481.208254 304.7,490.008254 C298.7,503.508254 299.1,518.108254 298.7,532.408254 C297.9,558.108254 297.9,583.808254 297.5,609.508254 C297.5,613.108254 297.5,613.108254 294.7,617.508254 C290.4,606.608254 291,595.808254 289.6,585.408254 C288.2,574.708254 286.7,563.908254 285,551.808254 C281.1,561.308254 279.9,569.908254 280.7,579.008254 C281.8,591.408254 282.3,604.008254 283,616.408254 C283.1,618.008254 283,619.608254 283,621.208254 C282.5,621.208254 281.9,621.308254 281.4,621.308254 C280.9,614.608254 280.5,608.008254 280,601.308254 C279.5,594.508254 279,587.708254 277.9,580.808254 C274.8,587.708254 273,595.108254 272,602.508254 C271,609.808254 270.7,617.208254 269.9,625.608254 C266.2,621.908254 262.3,619.708254 261.3,615.308254 C258.9,604.308254 256.7,593.208254 254.7,582.108254 C253,572.808254 251.6,563.508254 250.1,554.208254 C249.6,550.708254 249,547.208254 249.1,543.608254 C249.3,521.208254 249,498.808254 250.2,476.508254 C251.3,456.308254 254,436.208254 256.2,416.008254 C257.3,406.108254 257.3,396.208254 255.5,386.408254 C255.3,385.108254 254.6,383.908254 253.6,381.408254 C248.6,392.308254 243.3,401.708254 244.4,413.108254 C245.2,421.808254 246,430.508254 246.2,439.208254 C246.8,460.308254 243.5,481.008254 240.5,501.808254 C238.4,516.508254 237.3,531.308254 234.8,545.908254 C233.1,555.708254 235.1,564.508254 238.9,573.208254 C240.1,575.908254 240.9,578.808254 243.1,581.508254 C242.7,571.008254 242.3,560.508254 241.9,550.108254 C242.5,550.008254 243,550.008254 243.6,549.908254 C244.3,574.708254 247.6,599.108254 253.8,623.008254 C253.9,623.208254 253.2,623.608254 252.4,624.308254 C250.3,622.408254 248.2,620.408254 246.6,618.808254 C247.2,600.408254 238.8,585.108254 233,568.708254 C232.7,569.608254 232.3,570.508254 232.3,571.508254 C231.8,582.808254 231,594.108254 231.1,605.408254 C231.1,609.508254 227.8,611.308254 226.9,615.508254 C226,613.108254 225.3,611.408254 224.8,609.708254 C216.4,581.608254 214.3,552.708254 214.8,523.608254 C214.9,520.208254 214.2,516.608254 213.1,513.308254 C204.7,488.808254 196.2,464.308254 187.7,439.808254 C186.4,436.108254 185,432.408254 182.4,428.808254 C182.1,432.208254 181.6,435.508254 181.4,438.908254 C180.7,455.708254 182.6,472.408254 184.2,489.008254 C186.5,512.708254 189.9,536.308254 195.5,559.508254 C197.9,569.308254 201.5,578.908254 204.4,588.608254 C205.3,591.708254 206,595.008254 206.5,598.308254 C206.9,601.208254 207.9,604.208254 204.1,606.308254 C202.6,607.108254 202.5,610.208254 201.6,612.508254 C200.5,611.708254 199.5,611.408254 199.4,610.908254 C198.3,603.008254 197.4,595.108254 196.4,587.208254 C195.9,582.808254 195.6,578.308254 194.7,573.908254 C193,565.608254 191,557.408254 189.1,549.108254 C188.9,548.108254 188.2,547.208254 186.5,546.408254 C186.8,552.408254 186.7,558.508254 187.5,564.408254 C189.3,578.708254 191.6,592.908254 193.6,607.108254 C193.8,608.608254 193.3,610.208254 193.2,611.808254 C191.5,611.608254 189.3,611.908254 188.1,611.008254 C183.5,607.708254 179.6,603.808254 178,597.708254 C180.3,599.708254 182.6,601.808254 184.9,603.808254 C180.5,593.008254 173,584.108254 167,574.408254 C160.9,564.608254 154.6,554.908254 147.8,545.608254 C141,536.208254 133.4,527.408254 126,518.108254 C129.2,516.408254 130.8,518.508254 132.2,520.208254 C138.2,527.808254 144.3,535.308254 150,543.108254 C154.6,549.408254 158.5,556.108254 163,562.508254 C164.6,564.808254 167.1,566.608254 169.1,568.608254 C169.5,568.308254 169.9,568.008254 170.3,567.708254 C167.2,561.508254 164,555.308254 161,549.008254 C158,542.608254 155.7,535.708254 152,529.808254 C148.1,523.708254 146.4,516.508254 142.4,510.608254 C141.2,508.808254 139.1,507.608254 137.5,506.108254 C136.5,505.208254 135.2,504.408254 134.6,503.208254 C130.2,493.608254 126,483.808254 121.7,474.108254 C121.5,473.608254 122.1,472.908254 122.5,471.708254 C127.8,474.208254 128,479.508254 130.1,483.608254 C132.2,487.908254 133.4,492.708254 137.1,497.308254 C138.8,491.908254 133.7,488.008254 136.9,482.708254 C141.9,488.208254 140.7,495.608254 144.8,501.308254 C145.1,500.208254 145.4,499.408254 145.7,498.608254 C146.1,497.608254 146.6,496.608254 148.3,495.708254 C148.6,497.408254 149.5,499.108254 149.3,500.708254 C148,511.008254 151,520.308254 155.6,529.308254 C164.3,546.508254 173,563.808254 181.7,581.108254 C182.8,583.208254 184.2,585.008254 186.4,586.808254 C185.9,579.708254 185.4,572.608254 184.8,565.508254 C183.8,554.008254 182.6,542.508254 181.6,531.008254 C180.8,521.508254 176.7,513.208254 172.3,505.208254 C166.5,494.708254 160.5,484.208254 152.1,475.408254 C147.1,470.208254 142.4,464.508254 137.7,459.008254 C136,457.008254 134.5,454.908254 133.1,452.808254 C131.5,450.508254 130.5,447.408254 126.7,449.608254 C124.1,446.608254 118.3,447.308254 117.5,442.608254 C116.1,434.208254 109.9,430.108254 103.8,425.708254 C102.2,424.608254 101.2,422.708254 100,421.108254 C98.2,418.608254 96.6,416.008254 94.9,413.508254 C91.9,409.108254 88.8,404.808254 87.6,399.508254 C88,399.208254 88.5,398.908254 88.9,398.608254 C92.6,403.808254 96.3,408.908254 100,414.108254 C100.3,414.008254 100.6,413.808254 101,413.708254 C100.7,411.608254 100.4,409.508254 100.1,407.308254 C103.4,408.408254 103.4,408.408254 109.1,420.408254 C110.3,419.908254 111.5,419.408254 113.6,418.608254 C115.3,423.108254 117,427.408254 118.6,431.608254 C118.8,431.608254 119.1,431.508254 119.3,431.508254 C119.3,429.008254 119.3,426.508254 119.3,423.208254 C124.7,426.208254 122.5,431.608254 124.9,434.908254 C126.1,432.308254 127.7,432.008254 129.3,434.508254 C132,438.608254 135,442.608254 136.8,447.108254 C140.2,455.508254 145.5,462.808254 151.3,469.408254 C160.1,479.408254 167,490.608254 173.9,501.908254 C174.4,502.708254 174.9,503.408254 176.6,503.708254 C174.9,495.808254 173.5,487.808254 171.5,480.108254 C169.9,474.008254 167.3,468.108254 165.4,462.008254 C163.6,456.408254 161.8,450.808254 160.3,445.108254 C154.2,422.608254 145.4,401.508254 130.7,383.008254 C123.2,373.608254 116.4,363.708254 109.7,353.708254 C107.1,349.908254 105.9,345.208254 103.6,341.108254 C102.4,339.008254 100.8,336.908254 98.9,335.408254 C94,331.708254 88.9,328.408254 83.9,324.908254 C82.3,323.708254 80.8,322.308254 78.7,320.708254 C84.5,315.908254 89.6,321.408254 95.1,320.008254 C94.1,314.508254 94.6,308.608254 88.9,304.708254 C87.2,303.608254 86,301.508254 85.1,299.708254 C80.9,291.308254 76.8,282.808254 72.8,274.208254 C71.8,272.008254 70.4,269.508254 73.3,266.808254 C82.1,274.608254 83.4,286.208254 88.6,297.008254 C92,284.008254 87.5,272.208254 89,260.408254 C93.5,264.308254 91.8,269.808254 93.1,274.508254 C94.5,279.308254 94.7,284.508254 96.6,289.508254 C97.4,285.808254 98.2,282.108254 99,278.308254 C102.8,279.508254 101.9,282.008254 102.1,283.908254 C102.5,288.508254 101.7,293.308254 105.7,297.108254 C106.6,298.008254 106.5,300.208254 106.4,301.808254 C106.1,307.008254 105.5,312.108254 105.1,317.308254 C104.9,320.508254 103.7,323.908254 107.1,326.708254 C108.5,325.608254 109.9,324.608254 111.5,323.408254 C116.1,328.208254 113.7,334.008254 114.7,340.008254 C117.8,336.908254 120.6,334.108254 123.4,331.308254 C123.9,331.508254 124.4,331.608254 125,331.808254 C125.1,333.408254 125.7,335.308254 125.2,336.708254 C122.1,343.708254 118.7,350.608254 115.2,357.908254 C118.1,361.908254 121.2,366.108254 124.2,370.308254 C132.1,381.508254 140.6,392.308254 147.7,403.908254 C156.6,418.508254 161.1,435.008254 165.7,451.408254 C167.3,457.308254 169.3,463.108254 171.4,468.908254 C176.6,483.208254 178.5,498.208254 181.5,513.008254 C182.2,516.408254 183,519.908254 185,523.208254 C184.8,521.208254 184.7,519.208254 184.5,517.108254 C182.4,497.708254 180.1,478.208254 178.3,458.808254 C177.5,450.208254 174.8,442.208254 171.9,434.308254 C169.5,427.908254 167.1,421.508254 164.8,415.108254 C164.4,413.908254 164.6,412.508254 164.4,409.608254 C167,411.908254 168.6,413.208254 170.6,414.908254 C169.9,410.008254 169.2,405.608254 168.7,401.108254 C168.4,398.508254 166.9,395.708254 170.1,393.408254 C170.9,392.808254 169.9,389.508254 169.2,387.608254 C166.6,380.508254 163.3,373.608254 161.3,366.408254 C157.3,351.908254 154.1,337.108254 150.4,322.508254 C146.6,307.708254 142.4,292.908254 138.6,278.108254 C132.4,253.608254 127.1,229.008254 127,203.508254 C127,200.008254 126.9,196.408254 126.3,192.908254 C125.9,190.708254 124.5,188.808254 123.3,186.008254 C129.3,177.408254 125.9,166.808254 127.4,156.908254 C129.2,144.808254 130.5,132.608254 134.5,120.908254 C135.5,117.908254 136.1,114.608254 141.6,113.208254 C135.6,126.908254 132.1,140.208254 131.4,154.808254 C136.6,149.408254 139.7,142.808254 147.3,140.708254 C144.1,144.708254 141,148.708254 137.8,152.708254 C138,153.008254 138.2,153.208254 138.4,153.508254 C141.5,151.608254 144.5,149.708254 147.7,147.708254 C150,151.508254 148.1,153.308254 146.5,155.408254 C141.6,162.208254 136.9,169.308254 132.6,176.608254 C138.3,173.908254 140.3,167.608254 144.9,163.808254 C147.8,165.308254 147.1,167.008254 145.7,168.908254 C142.1,173.908254 138.6,178.908254 135.2,184.008254 C134.4,185.108254 134,186.508254 132.8,189.008254 C141.3,185.308254 143.1,176.008254 150.2,172.608254 C152.5,175.508254 150.5,176.908254 149.2,178.608254 C145.2,183.908254 141.2,189.108254 137.4,194.508254 C131.1,203.308254 129.1,213.108254 130.5,224.008254 C132.7,240.908254 136,257.508254 140.1,274.008254 C140.2,274.608254 140.7,275.108254 141.6,277.008254 C142.7,266.808254 143.7,258.008254 144.7,249.108254 C143,248.608254 141.3,248.608254 140.6,247.808254 C139.8,246.908254 139.5,245.108254 139.8,243.908254 C141.1,239.608254 142.6,235.408254 144.4,231.308254 C147.1,224.808254 149.9,218.308254 152.9,211.908254 C155.9,205.508254 159.2,199.208254 162.5,193.008254 C164.5,189.308254 167.7,186.708254 171.8,185.908254 C173.5,185.608254 175.5,186.908254 177.4,187.508254 C176.6,189.008254 176.2,190.908254 175,192.008254 C165.6,200.208254 158.8,210.408254 153.3,221.408254 C152.6,222.808254 152.3,224.408254 152.5,226.608254 C153.5,225.608254 154.5,224.708254 155.5,223.608254 C161,217.208254 166.5,210.708254 172,204.308254 C172.8,203.408254 173.6,202.408254 174.6,202.008254 C175.5,201.608254 176.7,202.008254 177.8,202.008254 C177.8,203.308254 178.1,204.708254 177.6,205.808254 C177.2,206.708254 175.7,207.208254 174.9,208.008254 C165.8,216.608254 156.9,225.408254 152.4,237.608254 C160.7,231.908254 165.3,221.308254 175.8,217.608254 C177.4,222.208254 174.6,222.808254 172.9,224.208254 C163.9,231.508254 156.3,240.108254 151.3,250.808254 C159,246.408254 162.2,237.308254 170.1,232.808254 C172.9,235.508254 171.4,237.208254 169.5,238.808254 C160.2,246.508254 155.4,256.508254 150.6,266.508254 C150.4,266.908254 150.4,267.408254 150.2,269.008254 C153.3,267.408254 154.3,264.808254 155.9,262.808254 C157.7,260.608254 159.1,258.008254 161.1,256.108254 C163,254.208254 165.5,252.908254 167.4,251.508254 C170.6,253.808254 169.4,255.708254 168.3,257.508254 C164.2,264.108254 159.8,270.608254 156,277.308254 C152.5,283.408254 149.4,289.808254 146.5,296.108254 C145.9,297.408254 146.4,299.308254 146.8,300.808254 C151.4,317.608254 156.4,334.308254 160.5,351.308254 C164.1,366.308254 170.2,380.408254 175.8,394.608254 C176,395.208254 176.5,395.708254 177.6,397.308254 C177,388.708254 176.5,381.208254 175.9,372.808254 C179.3,375.608254 179.8,376.408254 181.3,380.808254 C183.3,371.708254 181.5,363.708254 183.3,355.608254 C185.7,358.808254 188,362.108254 190.5,365.508254 C193.6,355.608254 194,352.008254 191.9,346.508254 C190.5,349.608254 189.3,352.208254 188.1,354.908254 C187.5,354.808254 186.9,354.708254 186.3,354.508254 C186,347.308254 185.7,340.108254 185.4,331.708254 C187.5,328.808254 189.6,334.408254 193,333.708254 C190.9,330.408254 188.9,327.608254 187.2,324.708254 C185.5,321.708254 184,318.508254 182.3,315.008254 C188.7,312.208254 190.9,319.608254 196.4,319.308254 C192.8,313.908254 189.5,308.908254 185.9,303.408254 C190.5,303.008254 190.5,303.008254 198.5,307.508254 C195,301.308254 192.3,296.408254 189.4,291.308254 C192.9,290.808254 192.9,290.808254 199.6,300.008254 C202.1,295.808254 200,292.108254 199.7,288.408254 C199.3,284.808254 198.6,281.108254 198.1,277.408254 C201.7,276.908254 202.3,278.908254 202.8,281.008254 C206.6,297.508254 210.1,314.208254 214.4,330.608254 C218.2,345.108254 219.3,359.908254 219.7,374.808254 C219.8,379.708254 219.2,384.708254 218.9,389.608254 C218.8,392.208254 218.5,394.808254 218.5,397.408254 C218.9,412.508254 219.6,427.608254 219.7,442.708254 C219.9,466.508254 219.9,490.308254 219.6,514.108254 C219.5,522.008254 222.6,528.808254 224.7,536.008254 C226,540.508254 228,544.808254 230.1,550.508254 C230.8,547.808254 231.5,546.208254 231.6,544.608254 C232.6,522.408254 237,500.608254 239.9,478.608254 C242.1,462.308254 244.5,445.808254 242.1,429.308254 C241.8,427.308254 242.5,425.208254 239.5,424.108254 C238.5,423.808254 237.6,420.708254 238,419.408254 C241.5,408.708254 238.9,397.908254 239.4,387.108254 C240.1,372.308254 242.1,357.508254 243.4,342.708254 C243.6,340.408254 243.8,337.908254 243.2,335.708254 C237.4,316.608254 231.5,297.508254 224.8,278.408254 C226.2,308.908254 227.5,339.408254 228.9,369.908254 C224.8,348.608254 224.5,327.008254 223.3,305.508254 C222.4,290.208254 221.3,274.908254 221.4,259.608254 C221.6,241.208254 223.2,222.908254 224.1,204.508254 C224.8,190.008254 228.8,176.208254 231.4,162.008254 C232.1,158.408254 232.2,155.608254 228.2,154.608254 C228.2,153.708254 228,153.008254 228.2,152.808254 C233.8,146.408254 234.6,138.408254 236.4,130.608254 C238.3,122.108254 241,113.808254 243.3,105.408254 C244.3,102.008254 244.8,98.8082537 243.9,95.1082537 C242.9,91.1082537 243.7,86.7082537 243.2,82.4082537 C239.8,88.3082537 238.5,94.8082537 238,102.008254 C234.6,97.5082537 234.7,94.0082537 237.9,84.4082537 C239.8,78.9082537 241.7,73.5082537 245.1,68.1082537 C245.9,69.9082537 246.7,71.6082537 247.9,74.2082537 C250,67.6082537 251.8,61.5082537 253.7,55.4082537 C254.3,55.4082537 254.9,55.4082537 255.5,55.3082537 C256.5,57.7082537 257.4,60.1082537 258.6,63.2082537 C263.3,54.9082537 262.9,44.5082537 271.3,37.2082537 C272.3,40.7082537 273.1,43.4082537 274,46.3082537 C277.5,44.9082537 276.2,42.4082537 275.6,40.4082537 C272.7,30.3082537 274.6,22.5082537 282.1,15.1082537 C286.2,18.8082537 286.5,20.8082537 282.1,23.5082537 C277.9,26.1082537 276.6,29.6082537 276.8,35.0082537 C279.9,32.3082537 282.4,30.0082537 285.4,27.2082537 C287.6,34.2082537 279.5,34.4082537 279.9,39.6082537 C280.8,40.1082537 282.8,40.6082537 283.1,41.6082537 C283.6,43.2082537 283.4,45.4082537 282.7,47.0082537 C280.5,51.9082537 277.9,56.7082537 275.4,61.5082537 C274.4,63.4082537 273.3,65.1082537 271.6,68.0082537 C276.5,65.9082537 280.4,64.2082537 285,62.2082537 C285.3,66.0082537 284.9,68.5082537 281.8,69.2082537 C273.4,71.0082537 268.1,77.1082537 262.2,82.4082537 C258.9,85.4082537 255.7,88.5082537 252.4,91.6082537 C251.4,92.6082537 250.1,93.5082537 249.7,94.8082537 C246.9,103.508254 244.3,112.208254 241.7,121.008254 C242.2,121.308254 242.7,121.608254 243.1,121.908254 C245.4,119.508254 247.9,117.208254 250,114.608254 C259,103.908254 268.1,93.4082537 279.3,85.0082537 C280.8,83.9082537 282.3,82.8082537 283.9,81.7082537 C284.4,81.3082537 285.2,81.3082537 286.2,81.5082537 C272.5,93.5082537 259.4,105.908254 248.2,122.308254 C255.4,118.808254 258.7,112.208254 264.8,109.608254 C267.1,113.208254 264.9,114.408254 263.2,116.108254 C260.2,119.208254 256.2,121.708254 257.5,127.308254 C257.8,128.708254 255.4,130.708254 254.1,132.408254 C250.6,137.008254 245.7,140.608254 244.6,147.308254 C248.3,143.808254 252.1,140.308254 255.8,136.908254 C258.6,139.908254 256.8,141.508254 255.4,142.908254 C246.7,151.108254 240.1,160.808254 234.3,171.108254 C233.6,172.308254 232.7,173.508254 232.5,174.808254 C230.5,186.608254 228,198.408254 226.8,210.408254 C225.4,224.208254 224.7,238.208254 224.8,252.108254 C224.9,260.508254 226.2,269.108254 228.4,277.208254 C232.6,293.408254 237.8,309.408254 242.6,325.408254 C243,326.908254 243.8,328.308254 245,331.108254 C249.2,320.108254 252.9,310.308254 256.5,300.508254 C257.3,298.908254 258.1,297.208254 258.9,295.608254 C260.3,293.208254 261.8,290.908254 263.2,288.508254 L263.1,288.608254 C263.6,287.808254 264,287.008254 264.6,286.208254 C271.6,277.608254 273.2,267.508254 274.2,256.608254 C276.1,238.208254 272.7,219.908254 274.2,201.608254 C275,192.208254 275.3,182.808254 276,173.408254 C276.1,171.908254 276.9,170.408254 277.6,168.508254 C282.4,172.108254 278.7,176.908254 280.9,180.508254 C288.6,162.408254 291.4,142.308254 302.5,125.008254 C306,127.508254 305.8,130.008254 305.2,132.608254 C303.7,138.608254 302.3,144.508254 301,150.508254 C300.6,152.008254 300.5,153.608254 301.2,155.708254 C303.4,152.508254 305.5,149.208254 307.9,146.208254 C310.3,143.208254 312.4,139.508254 316.8,138.308254 C319.3,141.208254 318.7,144.308254 315.8,145.308254 C310.4,147.108254 308.1,151.408254 305.7,155.608254 C297.3,169.808254 289.9,184.508254 287.3,201.308254 C288.6,198.808254 289.9,196.408254 291.3,193.908254 C292.9,191.308254 294.5,188.708254 296.2,186.108254 C298.8,182.208254 301.3,178.208254 304.2,174.408254 C305.7,172.508254 307.7,171.008254 309.5,169.408254 C311.9,171.808254 311.2,173.308254 309.6,174.808254 C296.6,187.508254 289.8,203.908254 282.8,220.208254 C279,229.008254 278.8,239.708254 281.5,251.808254 C275.3,254.108254 277.8,259.208254 278.4,263.908254 C284.1,256.508254 289.7,249.008254 295.5,241.708254 C297.2,239.608254 299.4,237.908254 301.4,236.008254 C301.1,236.908254 301.1,237.908254 300.6,238.608254 C295.7,245.308254 290.5,251.708254 286,258.508254 C282.3,264.108254 277.8,269.908254 276.4,276.308254 C274.5,285.108254 275.3,294.508254 275,303.708254 C274.8,308.908254 274.9,314.008254 274.9,319.208254 C274.9,325.408254 274.9,331.608254 274.9,337.908254 C277.4,336.008254 278.7,333.508254 280.3,331.408254 C281.9,329.208254 283.9,327.308254 285.8,325.308254 C282.7,330.808254 279.5,336.308254 276.7,341.908254 C275.5,344.308254 274.5,347.208254 274.6,349.808254 C275.1,365.308254 275.9,380.908254 276.6,396.408254 C277.4,416.608254 278.5,436.908254 278.7,457.208254 C278.9,476.808254 278,496.308254 277.7,515.908254 C277.6,521.108254 278.1,526.208254 281.1,530.508254 C277.6,537.808254 277.9,538.908254 284,542.008254 C284,539.408254 284.1,537.108254 284,534.808254 C283.1,521.908254 281.9,509.008254 281.4,496.008254 C280.9,480.508254 280.8,464.908254 281,449.408254 C281.4,425.808254 282.2,402.308254 282.8,378.708254 C282.9,375.408254 282.4,372.008254 282.1,367.908254 C282.7,365.408254 283.8,362.108254 284.2,358.708254 C285.2,348.908254 285.9,339.008254 286.6,329.208254 C286.7,327.908254 286,326.508254 285.7,325.208254 C286.5,322.508254 287.5,319.908254 288,317.108254 C292.5,292.108254 297,267.008254 301.4,242.008254 C301.7,240.008254 301.3,237.908254 301.3,235.908254 C302.4,232.308254 302.8,228.808254 302.3,225.008254 C301.7,220.408254 301.5,215.608254 304.7,211.108254 C306.1,211.308254 307.6,211.508254 309.2,211.708254 C311.9,204.108254 314.4,196.508254 317.2,189.108254 C320.4,180.508254 323.2,171.608254 327.4,163.608254 C333.6,152.008254 335.2,139.608254 336.2,126.908254 C336.6,121.708254 337.2,116.608254 337.9,111.408254 C338.1,109.708254 338.8,108.008254 339.4,106.208254 C343.9,108.308254 341.6,112.008254 343.1,115.508254 C345.9,109.808254 348.6,104.608254 351.2,99.3082537 C351.7,99.5082537 352.1,99.7082537 352.6,99.9082537 C347.8,113.308254 343.1,126.808254 338.3,140.208254 C338.7,140.408254 339,140.608254 339.4,140.808254 C346.2,131.608254 353,122.308254 359.8,113.108254 C360.3,112.408254 361,111.308254 360.8,110.608254 C359.4,104.908254 362.9,100.708254 365.3,96.2082537 C369.3,88.5082537 373.4,80.8082537 377.7,73.2082537 C379,70.9082537 379.6,67.9082537 383.1,66.5082537 C385,73.7082537 378.8,78.3082537 378.2,86.0082537 C383.6,80.7082537 389.1,77.4082537 392.5,71.6082537 C396.4,64.9082537 400.4,58.2082537 404.5,51.6082537 C406,49.2082537 408.2,47.2082537 410.4,44.6082537 C413.6,48.9082537 410.9,52.2082537 410.5,56.4082537 C416.3,52.4082537 421.7,48.7082537 427.1,45.0082537 C425.3,47.8082537 422.4,50.4082537 425.9,54.4082537 C431.5,52.2082537 437.2,49.9082537 442.9,47.5082537 C443.1,47.9082537 443.3,48.3082537 443.4,48.6082537 C441.5,49.8082537 439.6,51.1082537 437.6,52.4082537 C440.7,53.8082537 444.5,49.0082537 447.7,54.4082537 C446.9,54.8082537 446.3,55.3082537 445.7,55.4082537 C436.7,57.0082537 429,61.6082537 421.3,66.2082537 C411.8,71.8082537 402.7,78.3082537 391.5,80.1082537 C390.4,80.3082537 389.2,80.9082537 388.6,81.8082537 C382.1,89.7082537 375.7,97.7082537 369.7,106.308254 C382,100.708254 393,92.5082537 407.2,90.4082537 C407,95.2082537 404.2,95.7082537 401.1,96.1082537 C390.1,97.7082537 381.6,104.508254 372.9,110.808254 C377.7,110.208254 382.4,109.608254 387,109.008254 C388.4,112.608254 386.3,113.508254 384.4,114.508254 C380.4,116.508254 376.3,118.408254 372.4,120.508254 C370.2,121.708254 368.1,123.208254 364.7,125.308254 C371.8,125.308254 376.4,120.108254 382.2,121.908254 C383.1,124.608254 381.8,125.608254 379.8,126.408254 C376.3,127.908254 372.9,129.408254 369.6,131.308254 C367.4,132.508254 365.5,134.308254 363.5,135.908254 L363.8,135.208254 Z M301.1,432.508254 C304.4,422.508254 302.9,413.208254 297.5,404.308254 C297.7,408.708254 298.5,413.008254 299.2,417.408254 C300,422.508254 300.6,427.608254 301.2,432.708254 C299.9,434.308254 298.6,435.908254 297,438.008254 C297.7,439.708254 298.5,441.708254 299.3,443.708254 C299.8,443.608254 300.3,443.608254 300.8,443.508254 C300.9,439.708254 301,436.108254 301.1,432.508254 Z M396.1,320.608254 C406.3,316.408254 435.4,297.708254 439.4,292.608254 C437.9,293.008254 436.8,293.208254 435.7,293.508254 C425,296.808254 415.9,303.208254 406.4,308.808254 C401.4,311.708254 398.1,315.508254 396.2,320.708254 C395.5,322.508254 394.7,324.208254 394,326.008254 C394.5,326.108254 394.9,326.208254 395.4,326.308254 C395.6,324.408254 395.8,322.508254 396.1,320.608254 Z M354.9,190.508254 C348.7,193.608254 342.7,196.608254 336.7,199.708254 C331.3,202.508254 327.3,206.108254 328.9,212.908254 C327.1,214.108254 325.5,215.108254 324,216.308254 C320.5,219.108254 315.1,221.308254 314,224.908254 C312.3,230.908254 309.5,235.808254 305.9,240.608254 C305.5,241.108254 305.5,241.908254 305.4,242.608254 C301.3,263.608254 297.2,284.608254 292.9,306.108254 C304.1,300.308254 305.3,300.308254 306.7,306.008254 C298.2,305.008254 295.8,311.808254 292,317.008254 C302.2,310.908254 304.3,310.508254 308.8,315.108254 C306.2,315.708254 304,316.008254 301.9,316.708254 C299.5,317.408254 297.1,318.308254 296.2,321.308254 C306.1,319.708254 306.1,319.708254 306.5,324.908254 C298.4,325.008254 292.1,328.208254 289.9,336.208254 C288,343.108254 288.2,350.408254 289.3,358.408254 C298,351.208254 305.8,344.508254 313.9,338.208254 C317.5,335.408254 319.5,332.108254 320.5,327.808254 C322.2,320.008254 323.8,312.108254 326,304.508254 C328.9,294.308254 332.5,284.308254 335.5,274.208254 C337.2,268.308254 339.3,262.508254 337.9,255.808254 C336.5,249.008254 337.3,241.708254 336.3,234.708254 C335.7,230.608254 337,228.608254 340.6,227.708254 C340.6,222.508254 340.3,217.808254 340.7,213.108254 C341,208.508254 339.6,203.508254 342.4,198.308254 C348.4,205.808254 345,215.408254 350,222.908254 C353.7,220.208254 354.6,216.608254 354.8,213.308254 C355.2,206.008254 354.9,198.708254 354.9,190.508254 Z M273.5,519.808254 C276.2,463.808254 274.6,408.808254 270.4,353.908254 C269.8,354.008254 269.1,354.008254 269,354.308254 C265.1,361.008254 261.1,367.708254 257.4,374.508254 C256.7,375.708254 256.7,377.708254 257.2,379.208254 C262,394.808254 260.1,410.408254 258.4,426.208254 C257,438.808254 255.2,451.508254 255.3,464.208254 C255.4,484.708254 257.2,505.208254 257.5,525.708254 C257.6,534.508254 261.9,541.608254 264.4,549.408254 C264.6,550.208254 265.5,550.708254 266.9,552.308254 C267.3,546.608254 268,541.808254 265.1,537.808254 C257.4,527.008254 260.4,515.208254 261.5,503.608254 C261.5,503.408254 262.2,503.308254 262.8,503.008254 C263.9,505.408254 264.9,507.808254 266.7,511.708254 C267.2,506.808254 267.5,503.808254 267.9,499.508254 C271.3,506.408254 265.9,514.308254 273.5,519.808254 Z M214.6,505.808254 C215,505.708254 215.4,505.608254 215.8,505.508254 C215.8,488.608254 215.8,471.608254 215.7,454.708254 C215.7,453.508254 214.6,452.208254 214,451.008254 C213.4,452.108254 213.8,452.608254 213.9,453.108254 C214.1,454.508254 214.1,455.908254 214.2,457.308254 C212.9,456.808254 211,456.708254 210.3,455.808254 C203.3,447.108254 204.2,436.108254 202.4,425.908254 C202,423.708254 202.1,421.008254 201.4,418.608254 C200.8,416.508254 199.6,414.308254 202.6,411.708254 C206,419.208254 208.7,426.608254 214.1,432.608254 C214.5,431.808254 214.7,431.608254 214.7,431.408254 C215,413.708254 215.4,396.108254 215.6,378.408254 C215.6,376.908254 214.9,375.108254 214,374.008254 C209.2,368.208254 204.2,362.608254 199.2,357.008254 C198.4,356.108254 197.4,355.408254 195.7,353.908254 C195.7,358.508254 195.7,362.008254 195.7,365.708254 C197.7,364.808254 199.5,364.008254 201.6,363.108254 C201.9,364.308254 202.3,365.008254 202.2,365.508254 C201.1,369.108254 199.9,372.708254 198.8,376.308254 C198.6,376.808254 199,377.508254 199.2,378.108254 C201.1,377.208254 202.8,376.408254 204.5,375.708254 C204.4,378.208254 203.5,379.808254 202.5,381.208254 C197.4,388.508254 192.2,395.808254 187.1,403.108254 C183.3,408.508254 182.9,414.408254 185,420.608254 C194.5,448.208254 203.9,475.808254 213.4,503.408254 C213.6,504.308254 214.1,505.008254 214.6,505.808254 Z M295.8,418.108254 C295.1,412.408254 294.3,408.008254 294.2,403.508254 C294.1,399.008254 292.2,394.508254 294.3,389.408254 C300.8,393.608254 299.8,401.308254 304.8,406.108254 C305.1,394.508254 305.4,382.808254 305.7,370.408254 C307.7,371.508254 309,372.208254 310.6,373.108254 C313.1,362.008254 315.6,351.408254 318.2,340.008254 C316.5,340.508254 315.7,340.508254 315.2,340.908254 C306.8,348.408254 298.3,355.908254 290,363.708254 C288.5,365.108254 287.5,367.808254 287.3,369.908254 C286.3,381.908254 285.1,393.908254 284.9,405.908254 C284.3,430.708254 283.8,455.408254 284.1,480.208254 C284.3,495.608254 286,511.008254 287,526.308254 C287.6,526.308254 288.2,526.408254 288.9,526.408254 C290.2,520.308254 291.8,514.208254 292.7,508.008254 C294.6,494.008254 296.1,479.908254 297.9,465.908254 C298.6,460.008254 299.3,454.308254 297,448.508254 C292.3,436.608254 290.4,424.008254 288.3,411.408254 C288.1,410.208254 288.3,408.908254 288.3,407.008254 C293.7,409.108254 292.2,414.508254 295.8,418.108254 Z M254.7,370.608254 C255.2,370.508254 255.7,370.508254 256.2,370.408254 C260.5,363.408254 264.8,356.408254 268.9,349.408254 C269.6,348.208254 270,346.808254 270,345.408254 C270.5,330.108254 270.9,314.908254 271.2,299.608254 C271.3,294.608254 271.2,289.508254 271.2,283.208254 C269.6,284.908254 268.9,285.508254 268.4,286.208254 C261.7,298.308254 255.6,310.708254 251.5,324.108254 C248.4,334.208254 247,344.008254 250.6,354.308254 C252.5,359.608254 253.4,365.208254 254.7,370.608254 Z M369.8,268.008254 C369.4,267.708254 369.1,267.408254 368.7,267.108254 C359,275.808254 349.4,284.708254 339.5,293.308254 C332.7,299.108254 329.1,306.408254 327.2,314.908254 C326.2,319.308254 325.2,323.708254 324.2,328.108254 C324.7,328.408254 325.1,328.708254 325.6,328.908254 C332.5,323.808254 339.6,318.708254 346.4,313.408254 C347.8,312.308254 348.5,310.308254 349.3,308.708254 C353.6,300.108254 357.8,291.408254 362.1,282.708254 C364.6,277.808254 367.2,272.908254 369.8,268.008254 Z M341.9,322.208254 C341.6,321.808254 341.2,321.508254 340.9,321.108254 C335.4,325.408254 329.7,329.508254 324.3,334.008254 C322.9,335.208254 322.2,337.508254 321.6,339.508254 C320.9,341.708254 320.8,344.108254 320.3,346.408254 C317.6,359.308254 314.8,372.108254 312.2,385.008254 C311.6,388.108254 311.5,391.408254 311,395.508254 C321.6,370.408254 331.8,346.308254 341.9,322.208254 Z M219.4,531.408254 C216,548.408254 220,589.708254 226,602.608254 C226.7,592.108254 227.1,581.808254 228.3,571.508254 C229.3,563.208254 229.7,555.208254 225.6,547.408254 C223.1,542.808254 221.7,537.608254 219.4,531.408254 Z M356.6,406.208254 C352.6,409.108254 352.4,409.108254 351.8,411.908254 C347,434.208254 340.3,456.108254 337.8,479.008254 C336.8,487.908254 335,496.708254 333.9,505.608254 C333.1,511.808254 333,518.208254 332.7,524.508254 C335,518.308254 336.1,512.108254 337.2,505.808254 C339.1,494.708254 340.9,483.508254 342.7,472.408254 C344.5,461.508254 345.9,450.508254 348.1,439.708254 C350,430.708254 352.8,422.008254 355.2,413.108254 C355.6,411.008254 356,409.008254 356.6,406.208254 Z M259.4,548.808254 C257.7,557.608254 262.9,599.908254 266.2,605.408254 C266.2,593.908254 265.7,581.908254 266.4,570.008254 C266.9,561.708254 264.3,555.008254 259.4,548.808254 Z M295,520.308254 C291.6,527.608254 287.5,535.208254 288.1,543.408254 C289.1,556.908254 291.3,570.408254 293,583.908254 C293.1,583.908254 293.3,583.808254 293.4,583.808254 C293.9,562.608254 294.4,541.508254 295,520.308254 Z M411.7,293.808254 C409.7,297.308254 408.3,299.808254 406.4,303.108254 C422.9,296.308254 452.8,278.108254 457.9,271.908254 C443.1,277.708254 429.2,284.208254 417.5,294.808254 C415.6,296.508254 413.9,298.108254 411.7,293.808254 Z M244.5,393.808254 C246.8,389.008254 249.2,384.208254 251.4,379.408254 C252,378.208254 252.6,376.608254 252.4,375.408254 C250.8,367.608254 248.9,359.908254 247.1,352.208254 C244.9,366.108254 242.4,379.708254 244.5,393.808254 Z M269.6,567.108254 C269.9,574.008254 270.2,580.808254 270.5,587.608254 C273.1,582.408254 274.5,577.208254 275.8,571.908254 C277.8,563.408254 278.3,555.308254 270.3,548.408254 C270.9,552.708254 268.6,556.808254 272.6,560.108254 C273.8,561.108254 274.2,563.108254 274.9,564.608254 C273.4,565.308254 271.8,566.108254 269.6,567.108254 Z M191.6,322.708254 C194.3,331.108254 206.3,344.908254 213.7,347.908254 C212.9,344.408254 212.2,341.308254 211.7,339.108254 C203,335.508254 199.2,327.108254 191.6,322.708254 Z M451.3,261.308254 C439.6,268.808254 427.6,275.708254 419.1,287.208254 C431.5,280.608254 442.1,271.808254 451.3,261.308254 Z M290.1,165.408254 C292.1,164.308254 293.7,164.008254 294,163.308254 C296.8,154.408254 299.4,145.508254 300.2,136.108254 C295.8,145.108254 292.1,154.308254 290.1,165.408254 Z M206.1,352.008254 C205.7,352.408254 205.4,352.708254 205,353.108254 C207.7,357.808254 210.4,362.608254 213.2,367.308254 C213.6,367.108254 214,367.008254 214.4,366.808254 C214.4,362.508254 214.4,358.208254 214.4,354.208254 C211.3,353.408254 208.7,352.708254 206.1,352.008254 Z M355.1,126.208254 C361.5,122.308254 367.2,118.908254 374,114.908254 C364.9,115.108254 358,116.408254 355.1,126.208254 Z M277.5,49.1082537 C271,56.0082537 267.2,64.5082537 262.9,72.7082537 C269.4,65.9082537 273.8,57.7082537 277.5,49.1082537 Z M187.5,392.708254 C189.7,391.408254 191.6,390.108254 191.4,387.008254 C191.2,384.908254 192,382.608254 192.7,380.508254 C193.4,378.408254 194.5,376.308254 195.8,373.508254 C187,377.808254 189,385.908254 187.5,392.708254 Z M357.8,134.208254 C350.4,136.008254 343,137.708254 340.7,146.908254 C346.8,142.408254 352.3,138.308254 357.8,134.208254 Z M269.7,523.008254 C269.1,531.108254 269.4,531.608254 275.2,533.908254 C276.5,529.108254 273.3,526.608254 269.7,523.008254 Z M356.9,205.808254 C363.6,200.208254 359.5,194.308254 360.7,188.908254 C360.1,188.808254 359.5,188.808254 358.9,188.708254 C358.3,194.108254 357.6,199.508254 356.9,205.808254 Z M208.9,332.108254 C208.8,326.508254 203.9,319.308254 198.7,316.108254 C202.2,321.608254 205.6,326.908254 208.9,332.108254 Z M254.7,521.508254 C254.4,521.508254 254,521.408254 253.7,521.408254 C253.7,531.508254 253.7,541.608254 253.7,553.008254 C254.4,551.308254 254.7,550.808254 254.7,550.408254 C254.7,540.808254 254.7,531.108254 254.7,521.508254 Z M151.9,276.208254 C143.9,284.808254 143.4,285.708254 144.5,289.208254 C147.2,284.508254 149.5,280.308254 151.9,276.208254 Z M314.3,209.108254 C318.5,206.908254 320.9,203.808254 318.4,198.108254 C316.9,202.308254 315.6,205.708254 314.3,209.108254 Z M129.3,173.108254 C133.5,168.408254 133.5,168.408254 134.6,163.908254 C130.9,166.208254 128.7,168.508254 129.3,173.108254 Z M105.2,339.808254 C105.8,339.608254 106.5,339.508254 107.1,339.308254 C106.3,336.708254 108.9,332.908254 102.7,331.108254 C103.8,334.508254 104.5,337.108254 105.2,339.808254 Z M244.8,131.208254 C238.4,134.108254 238.4,134.108254 239,138.208254 C241.1,135.708254 242.9,133.508254 244.8,131.208254 Z M237.1,149.908254 C236.6,149.908254 236.2,149.808254 235.7,149.808254 C235.5,152.708254 235.2,155.608254 234.9,159.408254 C239.7,156.008254 236.4,152.808254 237.1,149.908254 Z M265,57.8082537 C265.6,57.9082537 266.2,57.9082537 266.9,58.0082537 C267.5,54.8082537 268.1,51.6082537 268.7,48.4082537 C268.2,48.3082537 267.7,48.2082537 267.3,48.1082537 C266.4,51.3082537 265.7,54.5082537 265,57.8082537 Z M203.7,303.008254 C202.2,307.708254 202.2,307.708254 206.1,311.108254 C205.3,308.108254 204.5,305.608254 203.7,303.008254 Z M199,344.508254 C198.5,344.608254 198.1,344.708254 197.6,344.708254 C197.6,349.208254 197.6,349.208254 201.9,351.708254 C200.8,349.108254 199.9,346.808254 199,344.508254 Z M323.5,185.408254 C323.4,185.408254 323.3,185.408254 323.2,185.408254 C323.2,187.908254 323.2,190.408254 323.2,193.008254 C323.3,193.008254 323.4,193.008254 323.5,193.008254 C323.5,190.408254 323.5,187.908254 323.5,185.408254 Z M274.7,544.308254 C275.1,544.008254 275.5,543.708254 275.9,543.408254 C274.5,541.508254 273.1,539.708254 271.7,537.808254 C271.3,538.108254 270.9,538.408254 270.6,538.608254 C272,540.508254 273.4,542.408254 274.7,544.308254 Z M264.7,516.308254 C263.8,519.708254 263.8,519.708254 266.6,522.908254 C265.7,519.708254 265.2,518.008254 264.7,516.308254 Z M281.4,548.708254 C280.9,548.708254 280.3,548.608254 279.8,548.608254 C279.7,550.608254 279.6,552.708254 279.5,554.708254 C279.9,554.708254 280.3,554.808254 280.6,554.808254 C280.9,552.708254 281.1,550.708254 281.4,548.708254 Z M145.5,265.708254 C145.9,265.908254 146.3,266.108254 146.7,266.308254 C147.5,264.408254 148.4,262.508254 149.2,260.608254 C148.7,260.408254 148.3,260.208254 147.8,260.008254 C147.1,261.908254 146.3,263.808254 145.5,265.708254 Z M412.1,65.5082537 C412.4,65.9082537 412.6,66.3082537 412.9,66.7082537 C414.3,65.6082537 415.7,64.5082537 417.1,63.4082537 C416.8,63.1082537 416.5,62.7082537 416.3,62.4082537 C414.9,63.4082537 413.5,64.4082537 412.1,65.5082537 Z M187.9,598.608254 C187.6,596.408254 187.5,595.008254 187.1,593.708254 C187,593.208254 186.2,592.808254 185.2,591.808254 C184.2,595.008254 185.4,596.608254 187.9,598.608254 Z M365.7,103.508254 C366.1,103.708254 366.4,103.908254 366.8,104.108254 C367.7,102.608254 368.7,101.108254 369.6,99.6082537 C369.2,99.4082537 368.8,99.1082537 368.4,98.9082537 C367.5,100.508254 366.6,102.008254 365.7,103.508254 Z M253.2,73.3082537 C252.9,73.2082537 252.5,73.0082537 252.2,72.9082537 C251.7,75.0082537 251.2,77.2082537 250.7,79.3082537 C251,79.4082537 251.4,79.5082537 251.7,79.5082537 C252.2,77.4082537 252.7,75.3082537 253.2,73.3082537 Z M348.1,458.608254 C348.5,458.808254 348.9,459.008254 349.3,459.208254 C349.7,457.908254 350.2,456.608254 350.6,455.408254 C350.2,455.308254 349.9,455.108254 349.5,455.008254 C349,456.208254 348.5,457.408254 348.1,458.608254 Z M308.7,409.208254 C309,409.208254 309.3,409.208254 309.6,409.308254 C309.7,408.008254 309.8,406.708254 309.9,405.508254 C309.6,405.508254 309.2,405.508254 308.9,405.408254 C308.8,406.608254 308.8,407.908254 308.7,409.208254 Z M402.6,374.208254 C402.3,373.808254 402,373.508254 401.7,373.108254 C400.7,373.908254 399.8,374.608254 398.8,375.408254 C399,375.708254 399.2,375.908254 399.4,376.208254 C400.5,375.508254 401.6,374.808254 402.6,374.208254 Z M317.5,212.608254 C317.9,212.908254 318.2,213.208254 318.6,213.608254 C319.3,212.508254 320.1,211.408254 320.8,210.208254 C320.5,210.008254 320.2,209.808254 319.9,209.608254 C319.1,210.608254 318.3,211.608254 317.5,212.608254 Z M95.3,304.008254 C95.2,304.008254 95.1,304.008254 95,304.008254 C94.9,305.008254 94.7,306.108254 94.6,307.108254 C94.9,307.108254 95.1,307.108254 95.4,307.208254 C95.3,306.108254 95.3,305.008254 95.3,304.008254 Z" id="Shape"></path>
            <path d="M437.3,472.408254 C436.3,475.008254 435.5,477.708254 434.2,480.108254 C425.4,497.108254 417.3,514.408254 411.8,532.808254 C411.3,534.508254 411.1,536.208254 410.6,538.508254 C416,537.008254 416.8,532.608254 418.7,529.308254 C424.7,519.408254 429.8,508.908254 436.6,499.708254 C444.4,489.108254 453.7,479.608254 462.3,469.608254 C463.2,468.608254 464.4,467.808254 466.3,467.608254 C465.3,468.908254 464.4,470.308254 463.2,471.508254 C450.1,485.508254 438,500.308254 428.2,516.708254 C426.7,519.108254 425.4,521.608254 424.2,524.208254 C422.1,528.508254 422.2,528.508254 424.6,533.908254 C413.9,540.408254 412.1,552.008254 408.1,563.308254 C412.6,562.508254 415.1,560.208254 417.1,557.308254 C418.7,555.008254 420.2,552.608254 421.8,550.308254 C439.4,525.308254 460.2,503.708254 487,488.508254 C496.2,483.308254 506,479.008254 515.5,474.408254 C516,474.108254 516.8,474.408254 517.9,475.208254 C515.1,476.608254 512.4,478.208254 509.6,479.508254 C483.6,491.608254 460.6,507.708254 441.8,529.508254 C435.2,537.108254 429.1,545.208254 423,552.708254 C424.5,555.608254 425.5,557.608254 426.3,559.208254 C425.7,560.108254 425.7,560.408254 425.5,560.508254 C417.7,563.108254 412.6,568.708254 408.9,575.808254 C405.9,581.308254 402.7,586.708254 400,592.508254 C411.5,585.208254 420.5,574.408254 433.6,569.708254 C434.3,569.408254 435.3,569.908254 437.2,570.308254 C432.2,581.808254 422.7,589.108254 415,599.208254 C419,598.508254 421.6,596.708254 424.2,595.208254 C433.6,589.708254 443.2,584.808254 453.7,581.708254 C458.7,580.208254 463.7,578.908254 469.6,580.708254 C469.7,588.408254 462.6,590.508254 458.7,595.408254 C479.4,589.508254 499.9,583.408254 521.6,579.908254 C521.8,583.408254 520.6,584.508254 518.1,584.808254 C490.6,587.808254 464.9,597.208254 439.5,607.508254 C437.5,608.308254 435.3,608.508254 433.2,609.008254 C432.9,608.408254 432.6,607.808254 432.3,607.308254 C433.6,606.308254 434.8,605.108254 436.2,604.208254 C443.6,599.608254 451.1,595.208254 458.5,590.608254 C460.8,589.108254 462.8,587.108254 464.6,583.808254 C463,583.808254 461.3,583.608254 459.7,583.808254 C449.8,585.508254 440.8,589.608254 432.2,594.608254 C424,599.308254 416.1,604.408254 408,609.208254 C405.9,610.408254 403.5,611.008254 401.3,611.908254 C400.9,611.408254 400.6,610.908254 400.2,610.508254 C401.2,609.208254 402,607.708254 403.1,606.508254 C411.5,597.308254 420,588.108254 428.5,578.908254 C429.3,578.108254 429.9,577.108254 430.2,575.708254 C425.6,576.808254 422.1,579.708254 418.6,582.408254 C415.1,585.208254 411.8,588.208254 408.4,591.208254 C404.8,594.308254 401.2,597.308254 397.8,600.608254 C394.7,603.608254 391.8,606.808254 388.2,610.608254 C386.5,603.908254 393,601.308254 392,595.808254 C391.2,591.508254 393.3,586.708254 393.5,581.808254 C387.9,587.708254 380.1,591.308254 377,599.408254 C376.8,599.808254 376.8,600.508254 376.4,600.708254 C373.1,602.508254 369.7,604.208254 365.8,605.608254 C369.3,598.508254 376.6,592.708254 372.5,583.308254 C368.2,585.508254 365.9,589.808254 363.2,593.608254 C360.4,597.408254 357.6,601.308254 355.3,605.308254 C352.9,609.508254 351.1,614.008254 348.7,619.008254 C345.8,615.308254 347.2,612.308254 348.6,609.908254 C352.9,602.608254 357.4,595.408254 362.1,588.308254 C364.4,584.808254 367.1,581.308254 370.1,578.408254 C373.5,575.108254 375.2,571.208254 375.8,566.608254 C376.7,559.708254 377.9,552.908254 378,545.708254 C376.5,548.608254 374.9,551.408254 373.4,554.308254 C365.9,568.208254 358.3,582.108254 351.1,596.108254 C348.7,600.908254 347.2,606.208254 345.9,611.408254 C345,615.108254 343.5,618.208254 340.9,622.708254 C340.5,620.308254 340.2,619.508254 340.3,618.708254 C340.7,613.608254 341.3,608.708254 340.6,603.508254 C340,599.308254 341.2,594.508254 342.7,590.308254 C350,570.408254 357.7,550.608254 365.4,530.808254 C370,518.708254 374.5,506.608254 379.6,494.708254 C381.9,489.308254 385.2,484.408254 388.2,479.308254 C392.2,472.608254 396.6,466.208254 400.6,459.508254 C402.7,455.908254 404.4,452.108254 406.3,448.308254 C406.6,447.708254 406.8,446.908254 407.3,446.508254 C416.1,438.708254 419.1,427.408254 424.9,417.708254 C426.5,415.108254 428.2,412.608254 429.8,410.008254 C430.1,410.208254 430.3,410.408254 430.6,410.708254 C428.7,414.808254 426.8,419.008254 424.9,423.108254 C425.2,423.408254 425.5,423.708254 425.8,423.908254 C427.8,422.908254 429.8,421.808254 431.7,420.808254 C437.1,418.008254 442.8,416.708254 448.8,417.508254 C453.1,418.008254 453.7,419.008254 452.9,423.508254 C446,420.108254 440,422.408254 433.7,425.708254 C428.9,428.208254 423.4,429.208254 418.8,434.808254 C421.4,434.108254 423,433.508254 424.6,433.208254 C427.8,432.508254 431,431.608254 434.2,431.408254 C436.7,431.208254 438.5,432.708254 438.2,436.408254 C429.8,434.108254 423,437.308254 417.2,442.008254 C414.2,444.408254 412.7,448.808254 410,453.108254 C413.9,452.908254 416.3,452.808254 420,452.608254 C418.9,454.708254 418.3,456.008254 417.6,457.208254 C411,457.908254 410.9,457.908254 407.7,462.608254 C411.5,460.508254 414.5,458.808254 417.5,457.108254 C419.9,457.208254 422.8,456.108254 423.8,460.508254 C416.9,462.608254 409.8,464.408254 403.6,470.208254 C408,470.508254 411,468.808254 414.2,468.508254 C417.4,468.108254 421,467.008254 424,472.008254 C415.5,473.208254 407.6,472.708254 400.9,478.208254 C402.3,479.808254 403.6,481.408254 405.6,483.608254 C403.8,484.108254 402.8,484.608254 401.8,484.508254 C398,484.208254 396.4,486.208254 397,489.508254 C397.4,491.908254 396.7,493.108254 395.4,495.008254 C393.5,497.808254 392.3,501.308254 391.4,504.608254 C389.7,510.608254 388.4,516.708254 386.5,524.408254 C393.6,515.708254 399.6,508.408254 405.8,500.808254 C408.9,503.808254 407.3,505.608254 405.8,507.408254 C401.4,512.608254 397,517.908254 392.5,523.008254 C387.4,528.808254 383.9,535.208254 382.8,543.008254 C381.7,550.908254 380.1,558.708254 378.7,566.508254 C379.2,566.808254 379.6,567.108254 380.1,567.408254 C384.1,563.708254 388.1,559.908254 392.1,556.208254 C394.7,553.808254 397.1,551.008254 400,549.208254 C404.1,546.608254 406.3,543.008254 407.5,538.508254 C413.4,516.508254 423.8,496.408254 434.2,476.308254 C434.9,474.908254 436.3,473.908254 437.4,472.808254 L437.3,472.408254 Z M390.3,497.108254 C381.8,501.808254 377.9,505.908254 374.9,513.808254 C367.2,533.808254 359.6,553.808254 352.2,573.808254 C350,579.808254 348.4,586.108254 346.5,592.208254 C348.1,591.908254 348.7,591.208254 349.2,590.408254 C358.1,574.608254 367,558.908254 375.9,543.108254 C378.2,539.008254 381.2,535.108254 382.4,530.708254 C385.4,520.008254 387.6,508.908254 390.3,497.108254 Z M402,555.208254 C401.4,554.808254 400.7,554.308254 400.1,553.908254 C394.7,559.008254 389.7,564.708254 383.8,569.208254 C376.3,574.908254 376.9,582.208254 377.4,591.508254 C382.3,586.608254 385.8,582.008254 390.3,578.908254 C399,572.908254 399.2,563.508254 402,555.208254 Z M409.7,549.708254 C409.1,549.408254 408.6,549.108254 408,548.908254 C405.1,554.408254 403.6,560.308254 402.3,566.308254 C402.7,566.508254 403.2,566.608254 403.6,566.808254 C405.6,561.108254 407.7,555.408254 409.7,549.708254 Z M393.8,474.508254 C397.9,473.608254 400.5,469.608254 401.5,463.308254 C398.9,467.008254 396.3,470.708254 393.8,474.508254 Z M384.6,494.708254 C387.8,492.308254 392.3,491.508254 394.1,486.808254 C388.4,488.708254 388.4,488.708254 384.6,494.708254 Z M407.6,572.108254 C407.3,571.808254 406.9,571.408254 406.6,571.108254 C405.7,572.408254 404.9,573.708254 404,574.908254 C404.3,575.108254 404.6,575.308254 404.8,575.508254 C405.8,574.408254 406.7,573.308254 407.6,572.108254 Z" id="Shape"></path>
            <path d="M111.5,569.408254 C110,565.608254 108.6,561.708254 107,557.908254 C99.9,540.208254 93.1,522.308254 89.4,503.508254 C86.5,488.908254 85.9,474.108254 90.2,459.508254 C90.2,461.608254 90.4,463.708254 90.2,465.708254 C87.5,487.108254 91.7,507.508254 98.8,527.508254 C103.1,539.508254 107.5,551.508254 112.3,563.208254 C113.8,566.808254 116.2,570.208254 119.1,572.908254 C127.7,580.908254 136.8,588.508254 145.7,596.208254 C147,597.308254 148.1,598.608254 148.9,600.208254 C144.2,600.008254 141.8,596.108254 137.5,594.708254 C140.8,598.608254 144,602.508254 147.1,606.108254 C145.8,609.908254 143.3,609.308254 141,608.708254 C135.5,607.308254 130.1,605.808254 124.6,604.208254 C110.7,600.308254 96.7,597.108254 82.1,598.308254 C77.7,598.708254 73.3,599.608254 68.8,600.208254 C65.7,600.608254 65.7,600.608254 61.9,597.508254 C80.4,594.608254 97.8,593.808254 115.3,598.808254 C115.5,598.308254 115.7,597.808254 116,597.208254 C114.4,595.308254 113,593.208254 111.3,591.408254 C102.8,582.008254 94,572.808254 85.6,563.108254 C76.1,552.108254 65.6,542.508254 52,536.608254 C48.8,535.208254 45.8,533.308254 42.9,531.208254 C51.9,532.408254 59.6,536.808254 66.7,541.808254 C73.2,546.408254 79,552.108254 84.6,557.808254 C93.6,567.108254 102.3,576.808254 111,586.408254 C114.3,590.108254 117.3,594.008254 120.5,597.708254 C121.6,599.008254 123.2,599.808254 125.7,600.008254 C125.2,598.808254 124.9,597.608254 124.3,596.608254 C115.2,582.808254 105.7,569.308254 96.9,555.308254 C77.5,524.408254 64,491.108254 58.9,454.808254 C56.9,440.308254 56.5,425.708254 57.9,411.108254 C58.1,409.308254 58.5,407.508254 59.5,405.608254 C54.7,467.108254 75.5,520.508254 109.8,569.708254 C110.5,569.708254 111,569.508254 111.5,569.408254 Z M123.4,583.908254 C124.9,591.908254 130,597.408254 135.1,603.008254 C135.8,603.708254 137.6,603.508254 140.5,603.908254 C134.1,596.408254 128.7,590.208254 123.4,583.908254 Z" id="Shape"></path>
            <path d="M288.3,141.908254 C302.1,113.108254 311,82.6082537 320.5,51.0082537 C324.2,55.0082537 322.7,58.1082537 322.1,61.1082537 C321.5,64.0082537 320.9,66.9082537 320.1,71.0082537 C327.7,63.3082537 332.8,54.7082537 341.8,50.5082537 C345.2,54.7082537 341.3,57.1082537 341.5,60.5082537 C345.9,58.1082537 350,55.7082537 355.6,52.6082537 C355.3,56.3082537 355.1,58.4082537 354.9,60.5082537 C356.1,60.4082537 357.4,60.2082537 360.3,59.9082537 C358.5,62.2082537 357.7,63.7082537 356.4,64.7082537 C350,69.5082537 343.7,74.4082537 337,78.8082537 C334.4,80.5082537 330.8,80.6082537 327.9,82.0082537 C325.2,83.4082537 322.9,85.6082537 319.8,86.8082537 C322.7,76.4082537 332,70.1082537 336.5,59.1082537 C329.9,64.4082537 325.4,69.7082537 322.1,75.8082537 C317.9,83.6082537 311.9,90.7082537 311.5,100.208254 C311.5,100.808254 311.1,101.808254 310.7,102.108254 C305.5,104.908254 305.1,110.508254 302.9,115.108254 C298.6,124.208254 294.4,133.408254 290.2,142.608254 C289.7,142.408254 289,142.208254 288.3,141.908254 Z" id="Path"></path>
            <path d="M349.9,24.7082537 C348.8,30.0082537 347.3,33.8082537 343.6,36.9082537 C341.5,38.6082537 340.9,42.3082537 339.7,45.1082537 C339,46.7082537 338.3,48.4082537 337.1,49.9082537 C336,44.3082537 333.3,39.0082537 336.1,33.0082537 C338.6,27.7082537 340,21.9082537 342,16.4082537 C342.6,14.8082537 343.8,13.4082537 345.1,11.4082537 C348.5,15.6082537 345.6,19.3082537 345.8,23.2082537 C349.2,20.6082537 351.9,18.1082537 355.1,16.1082537 C356.4,15.3082537 358.4,15.7082537 360.1,15.6082537 C359.8,17.3082537 360,19.4082537 359.1,20.7082537 C357.2,23.6082537 354.8,26.4082537 349.9,24.7082537 Z" id="Path"></path>
            <path d="M329.7,506.208254 C328.8,515.308254 327.4,524.408254 327.1,533.508254 C326.4,557.808254 326.1,582.008254 325.7,606.308254 C325.7,608.308254 326.3,610.708254 323,611.808254 C322.5,610.308254 321.6,608.808254 321.6,607.408254 C322.5,570.608254 321.7,533.708254 329.6,497.308254 C329.6,500.308254 329.6,503.308254 329.6,506.308254 C329.6,506.308254 329.7,506.208254 329.7,506.208254 Z" id="Path"></path>
            <path d="M122.8,544.008254 C125.4,541.608254 126.7,543.208254 128,544.608254 C131.7,548.908254 135.7,553.008254 138.8,557.608254 C149.2,573.108254 161.5,587.108254 173.8,601.008254 C174.3,601.508254 174.8,602.008254 175.2,602.608254 C176.4,604.608254 180.2,606.308254 177.1,608.808254 C176,609.708254 172,608.408254 170.4,606.908254 C166.3,603.108254 160.7,599.908254 161.5,592.808254 C161.6,592.108254 160.6,591.208254 160,590.508254 C150.5,578.208254 140.9,566.008254 131.3,553.808254 C128.8,550.508254 125.8,547.508254 122.8,544.008254 Z" id="Path"></path>
            <path d="M98.4,592.008254 C93.2,593.208254 91.6,590.408254 89.4,588.908254 C72.1,577.108254 54.6,565.508254 34.9,558.008254 C30.1,556.208254 25.1,554.308254 20.1,553.508254 C15.3,552.708254 10.3,553.308254 5.4,552.808254 C18.2,551.508254 31,551.808254 42.5,557.908254 C58.5,566.308254 74,575.808254 89.6,585.008254 C92.4,586.508254 94.7,588.908254 98.4,592.008254 Z" id="Path"></path>
            <path d="M258.9,295.308254 C258.1,296.908254 257.3,298.608254 256.5,300.208254 C254.7,301.208254 252.6,301.708254 252,299.108254 C250.4,291.808254 249.2,284.408254 248,277.008254 C247.9,276.308254 248.7,275.408254 249.4,274.008254 C251,275.208254 252.4,276.208254 253.7,277.208254 C254.3,275.208254 254.9,273.208254 255.5,271.108254 C256,271.108254 256.5,271.108254 257,271.108254 C259,276.908254 261.1,282.608254 263.1,288.408254 L263.2,288.308254 C257.4,287.908254 259.1,292.208254 258.9,295.308254 Z" id="Path"></path>
            <path d="M76.7,588.508254 C62.5,587.008254 49.7,584.408254 37,584.508254 C24.3,584.708254 11.6,587.708254 0,589.308254 C13.6,579.608254 60.3,578.108254 76.7,588.508254 Z" id="Path"></path>
            <path d="M363.7,135.308254 C372.3,132.308254 381.2,130.908254 392,130.508254 C390.1,132.808254 389.5,134.308254 388.5,134.608254 C382.6,136.408254 376.8,138.208254 370.8,139.408254 C368.6,139.808254 366,138.508254 363.6,137.808254 C363.4,137.808254 363.7,136.108254 363.8,135.308254 C363.8,135.208254 363.7,135.308254 363.7,135.308254 Z" id="Path"></path>
            <path d="M363,161.408254 C352,167.208254 341.5,172.608254 331.1,178.008254 C330.8,177.708254 330.5,177.308254 330.2,177.008254 C331,175.808254 331.7,174.408254 332.7,173.508254 C338.2,169.308254 356.3,162.008254 363,161.408254 Z" id="Path"></path>
            <path d="M464.7,433.208254 C458.5,441.708254 452.4,450.108254 446.2,458.608254 C445.9,458.408254 445.7,458.108254 445.4,457.908254 C450.3,448.508254 456.1,439.808254 463.8,432.308254 C464.1,432.608254 464.4,432.908254 464.7,433.208254 Z" id="Path"></path>
            <path d="M156.9,594.508254 C161.3,601.308254 157.1,607.908254 160.8,613.308254 C155.6,609.608254 154.3,603.008254 156.9,594.508254 Z" id="Path"></path>
            <path d="M330.1,43.0082537 C334.7,47.3082537 328.5,51.0082537 330.8,56.3082537 C325.7,51.0082537 325.8,47.1082537 330.1,43.0082537 Z" id="Path"></path>
            <path d="M356.1,8.20825373 C353.8,1.20825373 355.2,-0.691746274 361.9,0.208253726 C360,2.90825373 358.2,5.40825373 356.1,8.20825373 Z" id="Path"></path>
            <path d="M463.8,432.408254 C466.4,429.508254 468.9,426.608254 471.5,423.708254 C471.9,424.108254 472.3,424.408254 472.8,424.808254 C470.1,427.608254 467.4,430.408254 464.7,433.208254 C464.4,432.908254 464.1,432.608254 463.8,432.408254 Z" id="Path"></path>
            <path d="M429.8,409.708254 C431.7,406.308254 433.7,402.808254 435.6,399.408254 C436.1,399.708254 436.6,400.008254 437.1,400.308254 C434.9,403.708254 432.7,407.008254 430.6,410.408254 C430.3,410.208254 430.1,409.908254 429.8,409.708254 Z" id="Path"></path>
            <path d="M460.7,366.708254 C462.6,364.808254 464.5,363.008254 466.4,361.108254 C466.7,361.308254 466.9,361.608254 467.2,361.808254 C465.4,363.808254 463.5,365.808254 461.7,367.708254 C461.3,367.408254 461,367.108254 460.7,366.708254 Z" id="Path"></path>
            <path d="M427.4,44.6082537 C429.8,42.7082537 432.1,40.9082537 434.5,39.0082537 L434.4,38.9082537 C432.1,40.8082537 429.8,42.7082537 427.4,44.6082537 Z" id="Path"></path>
            <path d="M446.2,458.608254 C444.8,461.008254 443.4,463.308254 442,465.708254 C441.7,465.408254 441.4,465.208254 441.1,464.908254 C442.5,462.608254 444,460.208254 445.4,457.908254 C445.7,458.108254 446,458.408254 446.2,458.608254 Z" id="Path"></path>
            <path d="M437.4,472.508254 C438.7,470.008254 439.9,467.508254 441.2,465.008254 C441.5,465.308254 441.8,465.508254 442.1,465.808254 C440.5,468.008254 438.9,470.208254 437.4,472.508254 C437.3,472.408254 437.4,472.508254 437.4,472.508254 Z" id="Path"></path>
            <path d="M443.8,388.508254 C444.4,387.508254 445,386.508254 445.6,385.408254 C445.9,385.608254 446.2,385.708254 446.5,385.908254 C445.9,386.908254 445.4,388.008254 444.8,389.008254 C444.4,388.908254 444.1,388.708254 443.8,388.508254 Z" id="Path"></path>
            <path d="M469.2,464.108254 C470.2,463.308254 471.2,462.508254 472.1,461.708254 C472.3,461.908254 472.6,462.108254 472.8,462.308254 C471.9,463.208254 471.1,464.208254 470.2,465.108254 C469.9,464.708254 469.6,464.408254 469.2,464.108254 Z" id="Path"></path>
            <path d="M434.5,39.0082537 C435.6,37.7082537 436.7,36.4082537 437.8,35.0082537 C438.1,37.8082537 436.4,38.5082537 434.4,38.8082537 C434.4,38.9082537 434.5,39.0082537 434.5,39.0082537 Z" id="Path"></path>
            <path d="M328.3,257.008254 C319.5,254.508254 314.5,259.708254 309.6,266.208254 C309.1,255.008254 320.5,244.008254 330.1,245.408254 C330.8,245.508254 331.5,246.408254 333.3,247.708254 C329.5,248.708254 326.9,249.408254 323.8,250.308254 C324.9,252.908254 329.8,252.308254 328.3,257.008254 Z" id="Path"></path>
            <path d="M312,282.408254 C307.3,286.608254 303.1,290.408254 298.7,294.408254 C296.9,292.408254 298.3,290.708254 299.5,289.108254 C300.7,287.408254 301.9,285.508254 303.4,284.208254 C305.7,282.008254 308.4,279.908254 312,282.408254 Z" id="Path"></path>
            <path d="M335.1,238.308254 C330,240.208254 325.2,242.008254 319.6,244.208254 C323.5,236.708254 329.9,234.408254 335.1,238.308254 Z" id="Path"></path>
            <path d="M268.1,492.908254 C268.4,491.908254 268.7,491.008254 269,490.008254 C269.3,490.108254 269.5,490.108254 269.8,490.208254 C269.7,491.208254 269.5,492.208254 269.4,493.308254 C269,493.108254 268.5,493.008254 268.1,492.908254 Z" id="Path"></path>
        </g>
    </g>
</svg>